<svg xmlns="http://www.w3.org/2000/svg" width="1024" height="1024" viewBox="0 0 1024 1024" version="1.1"><path d="M 255 270.683 C 235.641 273.860, 225.940 295.763, 237.871 309.356 C 240.217 312.030, 246.106 314.829, 257.364 318.621 C 262.789 320.449, 267.852 322.462, 268.614 323.095 C 270.758 324.874, 270.257 328.834, 267.545 331.545 C 265.497 333.594, 264.132 333.996, 259.295 333.978 C 251.137 333.947, 239.922 328.613, 241.716 325.616 C 242.797 323.810, 238.895 327.185, 235.053 331.379 C 229.775 337.141, 229.552 338.443, 233.300 341.613 C 246.588 352.853, 271.438 353.119, 281.385 342.127 C 282.420 340.983, 283.727 340.331, 284.288 340.678 C 284.850 341.025, 285.039 340.872, 284.709 340.338 C 284.379 339.805, 284.740 337.598, 285.511 335.434 C 287.190 330.721, 287.413 321.223, 285.936 317.315 C 283.406 310.617, 277.653 306.810, 263.638 302.557 C 254.937 299.916, 250 296.694, 250 293.656 C 250 290.992, 253.476 287.907, 257.500 286.999 C 263.147 285.726, 274.920 288.703, 273.476 291.039 C 273.157 291.555, 273.498 291.746, 274.233 291.464 C 274.969 291.182, 276.567 291.880, 277.785 293.014 C 279.237 294.367, 280 294.625, 280 293.762 C 280 293.038, 281.795 290.057, 283.989 287.137 C 287.492 282.475, 287.832 281.564, 286.775 279.664 C 286.113 278.474, 285.555 277.200, 285.535 276.833 C 285.516 276.467, 285.090 275.792, 284.590 275.333 C 284.052 274.841, 284.007 275.065, 284.479 275.880 C 285.026 276.823, 284.839 277.113, 283.889 276.796 C 283.125 276.542, 282.500 275.846, 282.500 275.250 C 282.500 274.654, 282.090 273.792, 281.590 273.333 C 281.050 272.839, 281.015 273.078, 281.504 273.920 C 282.148 275.030, 281.911 275.160, 280.414 274.517 C 270.808 270.389, 263.504 269.287, 255 270.683 M 325.384 271.348 C 314.727 274.067, 306.043 281.421, 301.143 291.875 C 298.703 297.081, 298.507 298.507, 298.503 311 C 298.499 326.595, 299.715 330.481, 307.103 338.496 C 312.839 344.719, 318.305 347.751, 327.141 349.612 C 337.192 351.728, 342.100 351.007, 355.414 345.458 C 356.866 344.853, 357.131 344.980, 356.510 345.985 C 355.961 346.872, 356.077 347.070, 356.862 346.585 C 357.506 346.187, 357.819 345.516, 357.558 345.093 C 357.297 344.671, 358.901 342.564, 361.124 340.413 C 369.321 332.475, 372.968 323.041, 372.988 309.718 C 372.996 304.520, 372.327 299.939, 370.972 295.918 C 369.857 292.607, 369.252 289.402, 369.627 288.795 C 370.013 288.170, 369.855 287.971, 369.264 288.337 C 367.888 289.187, 364.714 284.297, 365.619 282.722 C 366.005 282.050, 365.959 281.827, 365.516 282.227 C 365.074 282.627, 363.111 281.548, 361.153 279.830 C 352.224 271.989, 337.009 268.382, 325.384 271.348 M 445.418 271.917 C 445.188 272.146, 445 275.858, 445 280.167 L 445 288 455 288 L 465 288 465 318.500 L 465 349 473.794 349 L 482.588 349 482.544 318.500 L 482.500 288 492.500 288.191 L 502.500 288.383 493 289.020 L 483.500 289.658 492.833 289.579 L 502.167 289.500 502.333 280.500 L 502.500 271.500 474.168 271.500 C 458.585 271.500, 445.648 271.688, 445.418 271.917 M 509.114 273 C 509.568 273.825, 511.115 279, 512.553 284.500 C 516.597 299.975, 520.607 315.019, 525.345 332.500 L 529.683 348.500 538.222 348.787 L 546.762 349.074 547.312 346.287 C 547.614 344.754, 550.450 333.588, 553.614 321.473 L 559.367 299.447 565.136 322.288 C 568.310 334.850, 571.182 346, 571.520 347.064 C 572.064 348.776, 573.106 349, 580.529 349 L 588.923 349 590.012 344.750 C 590.612 342.413, 593.158 333.075, 595.670 324 C 598.183 314.925, 600.688 305.819, 601.238 303.764 C 601.787 301.709, 602.521 300.200, 602.868 300.411 C 603.216 300.622, 603.577 299.153, 603.671 297.147 C 603.765 295.141, 605.228 289.057, 606.921 283.627 C 608.615 278.197, 610 273.359, 610 272.877 C 610 272.395, 606.048 272, 601.218 272 L 592.436 272 588.732 287.250 C 586.694 295.637, 584.081 306.663, 582.924 311.750 C 581.767 316.837, 580.411 321, 579.910 321 C 579.410 321, 579 320.397, 579 319.660 C 579 317.879, 568.243 276.076, 567.108 273.446 C 566.309 271.594, 565.542 271.433, 559.361 271.812 C 555.587 272.043, 552.419 272.298, 552.320 272.380 C 552.221 272.461, 549.389 283.302, 546.028 296.472 C 542.667 309.642, 539.762 320.572, 539.572 320.761 C 539.254 321.080, 535.411 305.444, 530.001 281.814 L 527.783 272.128 518.036 271.814 C 509.613 271.543, 508.401 271.704, 509.114 273 M 640.279 271.745 L 631.057 272.074 630.037 275.787 C 629.476 277.829, 623.891 295.154, 617.626 314.287 L 606.236 349.074 614.868 348.787 L 623.500 348.500 626 340.697 L 628.500 332.894 641.471 333.197 L 654.441 333.500 656.289 338.483 C 657.306 341.223, 658.277 345.048, 658.447 346.983 C 658.718 350.068, 659.109 350.522, 661.628 350.677 L 664.500 350.854 661.500 350.045 C 659.332 349.461, 661.066 349.204, 667.750 349.118 C 672.837 349.053, 677 348.748, 677 348.440 C 677 348.131, 672.933 335.644, 667.963 320.690 C 662.993 305.735, 657.343 288.438, 655.408 282.250 C 653.325 275.591, 651.401 271.085, 650.694 271.208 C 650.037 271.322, 645.350 271.563, 640.279 271.745 M 781.750 271.749 L 760 272.039 760 310.520 L 760 349 784 349 L 808 349 808 341 L 808 333 792.500 333 L 777 333 777 325 L 777 317 789 317 L 801 317 801 309.500 L 801 302 789 302 L 777 302 777 295 L 777 288 791.607 288 C 804.516 288, 806.143 287.816, 805.607 286.418 C 805.273 285.548, 805 281.723, 805 277.918 C 805 274.113, 804.663 271.103, 804.250 271.229 C 803.837 271.356, 793.712 271.589, 781.750 271.749 M 388 310.500 L 388 349 397 349 L 406 349 406 333 L 406 317 418.500 317 L 431 317 431 309.500 L 431 302 418.250 302.002 L 405.500 302.005 405.832 295.002 L 406.164 288 421.082 288 L 436 288 436 280 L 436 272 412 272 L 388 272 388 310.500 M 688 310.416 L 688 349 696.500 349 L 705 349 705 335.500 L 705 322 709.767 322 L 714.534 322 721.262 335.500 L 727.991 349 737.495 349 C 743.465 349, 747 348.610, 747 347.950 C 747 347.373, 746.307 345.560, 745.459 343.921 C 744.612 342.282, 744.195 340.493, 744.533 339.946 C 744.872 339.398, 744.553 339.074, 743.824 339.225 C 743.028 339.391, 742.530 338.624, 742.574 337.300 C 742.615 336.090, 742.293 335.319, 741.860 335.587 C 741.426 335.855, 739.872 333.695, 738.407 330.787 C 736.942 327.879, 734.826 324.199, 733.704 322.610 C 731.723 319.803, 731.718 319.679, 733.523 318.360 C 735.795 316.698, 737.374 316.586, 736.405 318.155 C 735.949 318.892, 736.132 319.037, 736.912 318.554 C 737.584 318.139, 737.888 317.555, 737.589 317.256 C 737.290 316.957, 738.373 315.200, 739.996 313.352 C 747.977 304.262, 746.994 286.640, 738.056 278.551 C 736.951 277.551, 736.269 276.374, 736.540 275.935 C 736.811 275.497, 736.506 274.813, 735.862 274.415 C 735.131 273.963, 734.959 274.124, 735.405 274.845 C 736.300 276.295, 735.745 276.296, 732.578 274.854 C 731.195 274.223, 730.244 273.415, 730.465 273.057 C 730.686 272.699, 721.222 272.277, 709.434 272.119 L 688 271.832 688 310.416 M 329.500 288.366 C 327.300 289.075, 325.593 290.123, 325.706 290.695 C 325.819 291.267, 324.694 292.807, 323.206 294.117 L 320.500 296.500 322.924 293.750 C 324.258 292.238, 324.853 291, 324.247 291 C 322.762 291, 319.149 295.709, 317.372 299.960 C 315.010 305.614, 315.419 317.260, 318.175 322.814 C 319.454 325.391, 321.096 327.376, 321.824 327.225 C 322.553 327.074, 322.895 327.361, 322.585 327.862 C 321.771 329.179, 324.692 331.308, 326.111 330.432 C 326.829 329.987, 327.048 330.114, 326.656 330.748 C 325.898 331.973, 331.051 334.003, 334.899 333.994 C 336.330 333.991, 339.290 333.492, 341.477 332.885 C 346.243 331.562, 353.507 324.764, 352.621 322.456 C 352.292 321.598, 352.447 321.158, 352.965 321.478 C 354.521 322.440, 356.258 313.892, 355.721 307.912 C 354.977 299.631, 350.852 292.555, 344.987 289.502 C 341.069 287.462, 333.930 286.939, 329.500 288.366 M 705 297.500 L 705 307 712.453 307 C 721.155 307, 724.431 305.789, 726.005 301.989 C 727.993 297.188, 726.916 292.843, 723.102 290.282 C 720.331 288.421, 718.348 288, 712.352 288 L 705 288 705 297.500 M 413.206 289.741 C 416.895 289.932, 423.195 289.934, 427.206 289.743 C 431.218 289.553, 428.200 289.396, 420.500 289.395 C 412.800 289.393, 409.518 289.549, 413.206 289.741 M 450.280 289.736 C 452.909 289.943, 456.959 289.940, 459.280 289.731 C 461.601 289.521, 459.450 289.352, 454.500 289.355 C 449.550 289.358, 447.651 289.530, 450.280 289.736 M 708.750 289.723 C 710.538 289.945, 713.462 289.945, 715.250 289.723 C 717.038 289.502, 715.575 289.320, 712 289.320 C 708.425 289.320, 706.962 289.502, 708.750 289.723 M 784.206 289.741 C 787.895 289.932, 794.195 289.934, 798.206 289.743 C 802.218 289.553, 799.200 289.396, 791.500 289.395 C 783.800 289.393, 780.518 289.549, 784.206 289.741 M 640.761 292.080 C 640.270 294.295, 635.287 311.422, 633.584 316.750 C 632.876 318.965, 632.999 319, 641.512 319 L 650.159 319 649.547 316.250 C 649.210 314.738, 647.217 308.136, 645.117 301.580 C 642.281 292.728, 641.160 290.283, 640.761 292.080 M 802.320 310 C 802.320 313.575, 802.502 315.038, 802.723 313.250 C 802.945 311.462, 802.945 308.538, 802.723 306.750 C 802.502 304.962, 802.320 306.425, 802.320 310 M 785.287 318.740 C 788.469 318.939, 793.419 318.937, 796.287 318.736 C 799.154 318.535, 796.550 318.372, 790.500 318.374 C 784.450 318.376, 782.104 318.541, 785.287 318.740 M 787.296 331.744 C 791.583 331.932, 798.333 331.931, 802.296 331.742 C 806.258 331.552, 802.750 331.399, 794.500 331.400 C 786.250 331.401, 783.008 331.556, 787.296 331.744 M 809.320 341 C 809.320 344.575, 809.502 346.038, 809.723 344.250 C 809.945 342.462, 809.945 339.538, 809.723 337.750 C 809.502 335.962, 809.320 337.425, 809.320 341 M 686.310 341.500 C 686.315 344.800, 686.502 346.029, 686.725 344.232 C 686.947 342.435, 686.943 339.735, 686.715 338.232 C 686.486 336.729, 686.304 338.200, 686.310 341.500 M 533.768 350.725 C 535.565 350.947, 538.265 350.943, 539.768 350.715 C 541.271 350.486, 539.800 350.304, 536.500 350.310 C 533.200 350.315, 531.971 350.502, 533.768 350.725 M 575.768 350.725 C 577.565 350.947, 580.265 350.943, 581.768 350.715 C 583.271 350.486, 581.800 350.304, 578.500 350.310 C 575.200 350.315, 573.971 350.502, 575.768 350.725 M 327.734 394.024 C 325.663 394.547, 322.160 395.898, 319.950 397.025 C 317.740 398.153, 315.427 398.764, 314.811 398.383 C 314.173 397.989, 313.968 398.139, 314.334 398.732 C 315.105 399.979, 312.468 402.407, 311.197 401.622 C 310.707 401.319, 309 402.475, 307.403 404.190 C 305.806 405.906, 305.121 406.952, 305.880 406.515 C 306.639 406.079, 307.072 406.122, 306.843 406.611 C 306.614 407.100, 304.792 410.787, 302.794 414.804 C 294.551 431.376, 297.598 452.924, 309.772 464.143 C 312.372 466.539, 314.499 468.800, 314.500 469.167 C 314.500 469.533, 314.910 470.208, 315.410 470.667 C 315.939 471.151, 316.019 470.976, 315.601 470.250 C 314.683 468.654, 314.524 468.629, 321 471.095 C 325.209 472.698, 328.740 473.185, 336.040 473.170 C 346.815 473.149, 353.072 471.308, 361.198 465.770 L 365.996 462.500 365.998 446.199 L 366 429.897 351.498 430.199 C 342.486 430.386, 336.838 430.121, 336.577 429.500 C 336.347 428.950, 336.122 429.036, 336.079 429.691 C 336.036 430.346, 336.450 431.160, 337 431.500 C 337.550 431.840, 338 434.566, 338 437.559 L 338 443 344 443 L 350 443 350 448.386 C 350 453.578, 349.871 453.833, 346.434 455.464 C 340.925 458.079, 326.852 457.666, 328.537 454.939 C 328.849 454.435, 328.487 454.259, 327.734 454.549 C 326.215 455.132, 321 451.458, 321 449.805 C 321 449.195, 321.733 449.330, 322.750 450.128 C 324.329 451.366, 324.368 451.332, 323.154 449.782 C 322.414 448.837, 321.329 448.162, 320.743 448.282 C 318.750 448.690, 316.857 439.813, 317.260 431.951 C 317.544 426.390, 318.268 423.296, 320.007 420.201 C 321.306 417.890, 322.762 416, 323.243 416 C 323.724 416, 323.794 416.563, 323.399 417.250 C 322.981 417.976, 323.061 418.151, 323.590 417.667 C 324.090 417.208, 324.500 416.308, 324.500 415.667 C 324.500 413.576, 333.136 410, 338.183 410 C 344.245 410, 358.915 416.585, 357.244 418.556 C 356.835 419.039, 357.288 418.831, 358.250 418.095 C 360.112 416.669, 360.680 415.462, 359 416.500 C 356.660 417.946, 358.306 415.264, 362.184 411.313 C 367.135 406.268, 367.575 403.834, 364.089 400.766 L 361.514 398.500 363.412 400.750 C 364.456 401.988, 364.869 403, 364.329 403 C 363.102 403, 358.816 398.517, 359.443 397.890 C 359.697 397.636, 359.139 397.377, 358.202 397.313 C 357.266 397.249, 354.475 396.431, 352 395.494 C 346.710 393.491, 333.108 392.667, 327.734 394.024 M 831.230 394.484 C 816.794 398.552, 807.642 408.444, 804.574 423.293 C 802.614 432.784, 802.611 437.723, 804.558 445.986 C 808.139 461.181, 818.693 470.836, 834.099 473.014 C 845.301 474.597, 859.164 470.940, 867.022 464.328 L 870 461.822 870 445.911 L 870 430 856.500 430 L 843 430 843 436.500 L 843 443 848.550 443 L 854.100 443 853.800 448.750 C 853.529 453.944, 853.287 454.493, 851.300 454.426 C 850.090 454.385, 849.320 454.710, 849.591 455.147 C 850.401 456.458, 845.308 457.263, 839.061 456.811 C 826.209 455.881, 819.284 444.437, 822.048 428.698 C 824.091 417.066, 830.892 410.908, 842.480 410.195 C 847.607 409.880, 849.316 410.254, 854 412.715 C 857.025 414.304, 859.500 416.219, 859.500 416.969 C 859.500 417.719, 860.074 418.450, 860.775 418.592 C 861.500 418.739, 861.577 418.621, 860.955 418.318 C 859.862 417.788, 863.887 414.319, 865.132 414.719 C 865.480 414.830, 865.705 414.163, 865.632 413.235 C 865.560 412.307, 866.025 411.537, 866.667 411.524 C 867.308 411.511, 868.208 411.090, 868.667 410.590 C 869.151 410.061, 868.976 409.981, 868.250 410.399 C 866.488 411.412, 866.697 409.993, 868.621 407.866 C 869.674 406.703, 869.967 405.448, 869.458 404.287 C 869.026 403.304, 868.634 402.185, 868.586 401.800 C 868.539 401.415, 867.847 400.515, 867.048 399.800 C 865.795 398.678, 865.778 398.739, 866.921 400.250 C 867.649 401.212, 867.810 402, 867.277 402 C 866.077 402, 862.828 398.505, 863.450 397.883 C 863.700 397.633, 863.139 397.377, 862.202 397.313 C 861.266 397.249, 858.527 396.459, 856.115 395.557 C 849.805 393.197, 837.657 392.673, 831.230 394.484 M 159 433.500 L 159 472 182.500 472 L 206 472 206 464 L 206 456 191 456 L 176 456 176 448 L 176 440 188 440 L 200 440 200 432 L 200 424 188 424 L 176 424 176 417.500 L 176 411 191 411 L 206 411 206 403 L 206 395 182.500 395 L 159 395 159 433.500 M 220 433.540 L 220 472.081 228.250 471.790 L 236.500 471.500 236.500 453.006 C 236.500 442.834, 236.258 431.922, 235.963 428.756 C 235.668 425.590, 235.668 423.003, 235.963 423.006 C 237.077 423.019, 239.980 429.223, 239.350 430.243 C 238.984 430.835, 239.159 431.020, 239.744 430.658 C 241.059 429.845, 247.404 439.537, 246.507 440.989 C 246.146 441.572, 246.391 441.926, 247.051 441.775 C 247.710 441.624, 248.477 442.125, 248.755 442.889 C 249.093 443.821, 248.837 444.017, 247.975 443.485 C 247.127 442.960, 246.937 443.088, 247.415 443.862 C 247.813 444.506, 248.554 444.775, 249.063 444.461 C 250.254 443.725, 263.279 463.740, 262.465 465.056 C 262.128 465.603, 262.391 465.926, 263.051 465.775 C 263.710 465.624, 264.477 466.125, 264.755 466.889 C 265.102 467.845, 264.829 468.029, 263.880 467.479 C 263.065 467.007, 262.841 467.052, 263.333 467.590 C 263.792 468.090, 264.692 468.501, 265.333 468.503 C 265.975 468.504, 266.503 469.328, 266.507 470.333 C 266.514 471.984, 267.509 472.160, 276.844 472.160 C 282.525 472.160, 287.472 471.827, 287.837 471.420 C 288.202 471.012, 287.938 471.003, 287.250 471.399 C 286.259 471.969, 286 464.123, 286 433.559 L 286 395 277.518 395 L 269.037 395 268.768 418.205 L 268.500 441.410 264.163 434.751 C 261.643 430.884, 260.136 427.589, 260.567 426.892 C 261.029 426.145, 260.886 425.952, 260.190 426.383 C 258.790 427.248, 251.529 416.571, 252.476 415.040 C 252.846 414.441, 252.609 414.074, 251.949 414.225 C 251.290 414.376, 250.523 413.875, 250.245 413.111 C 249.898 412.155, 250.171 411.971, 251.120 412.521 C 251.935 412.993, 252.159 412.948, 251.667 412.410 C 251.208 411.910, 250.346 411.500, 249.750 411.500 C 249.154 411.500, 248.458 410.875, 248.204 410.111 C 247.887 409.161, 248.177 408.974, 249.120 409.521 C 249.935 409.993, 250.159 409.948, 249.667 409.410 C 249.208 408.910, 248.346 408.500, 247.750 408.500 C 247.154 408.500, 246.458 407.875, 246.204 407.111 C 245.895 406.185, 246.169 405.986, 247.025 406.515 C 247.873 407.040, 248.063 406.912, 247.585 406.138 C 247.187 405.494, 246.481 405.203, 246.016 405.490 C 244.790 406.248, 240.725 399.254, 241.584 397.864 C 242.009 397.176, 241.878 396.957, 241.268 397.334 C 240.695 397.688, 239.671 397.308, 238.991 396.489 C 238.066 395.375, 235.520 395, 228.878 395 L 220 395 220 433.540 M 267.425 416 C 267.425 427.825, 267.569 432.663, 267.746 426.750 C 267.923 420.837, 267.923 411.163, 267.746 405.250 C 267.569 399.337, 267.425 404.175, 267.425 416 M 380 433.431 L 380 471.863 389.599 472.181 C 394.878 472.357, 399.447 472.093, 399.753 471.595 C 400.059 471.098, 399.789 471.012, 399.155 471.405 C 398.289 471.939, 398 462.451, 398 433.559 L 398 395 389 395 L 380 395 380 433.431 M 413 433.500 L 413 472 421.500 472 L 430 472 430.040 447.250 C 430.078 423.934, 430.173 422.674, 431.686 425.500 C 432.569 427.150, 434.126 429.573, 435.146 430.885 C 437.272 433.619, 437.588 435.456, 435.750 434.399 C 435.024 433.981, 434.849 434.061, 435.333 434.590 C 435.792 435.090, 436.692 435.511, 437.333 435.524 C 437.975 435.537, 438.438 436.320, 438.363 437.263 C 438.288 438.207, 438.576 438.762, 439.004 438.498 C 440.093 437.824, 443.219 442.837, 442.467 444.053 C 442.128 444.601, 442.391 444.926, 443.051 444.775 C 443.710 444.624, 444.477 445.125, 444.755 445.889 C 445.093 446.821, 444.837 447.017, 443.975 446.485 C 443.127 445.960, 442.937 446.088, 443.415 446.862 C 443.813 447.506, 444.508 447.804, 444.960 447.525 C 445.412 447.246, 446.505 448.122, 447.391 449.473 C 449.288 452.369, 449.447 453.394, 447.845 452.405 C 447.124 451.959, 446.963 452.131, 447.415 452.862 C 447.813 453.506, 448.504 453.806, 448.952 453.530 C 450.208 452.753, 460.301 468.705, 459.437 470.102 C 458.980 470.841, 459.112 471.049, 459.776 470.638 C 460.373 470.269, 461.144 470.425, 461.490 470.984 C 461.840 471.549, 466.081 472, 471.059 472 L 480 472 480 433.500 L 480 395 472.018 395 L 464.036 395 463.768 419.013 L 463.500 443.027 459.250 436.758 C 454.963 430.435, 454.034 428.285, 456.155 429.595 C 456.876 430.041, 457.037 429.869, 456.585 429.138 C 456.187 428.494, 455.463 428.214, 454.975 428.516 C 453.701 429.303, 450.684 424.320, 451.568 422.889 C 452.015 422.167, 451.886 421.953, 451.243 422.350 C 450.641 422.722, 448.833 420.824, 447.088 417.989 C 443.749 412.562, 443.364 411.489, 445.155 412.595 C 445.876 413.041, 446.037 412.869, 445.585 412.138 C 445.187 411.494, 444.498 411.192, 444.053 411.467 C 442.869 412.199, 437.802 404.129, 438.617 402.810 C 439.030 402.143, 438.858 401.970, 438.192 402.381 C 437.540 402.785, 435.966 401.394, 434.405 399.036 L 431.734 395 422.367 395 L 413 395 413 433.500 M 494 433.500 L 494 472 518.500 472 L 543 472 543 464 L 543 456 527 456 L 511 456 510.998 447.750 L 510.996 439.500 522.998 439.809 L 535 440.118 535 432.059 L 535 424 523 424 L 511 424 511 417.500 L 511 411 527 411 L 543 411 543 403 L 543 395 518.500 395 L 494 395 494 433.500 M 557 433.466 L 557 471.932 581.250 472.216 L 605.500 472.500 605.177 464.250 L 604.853 456 589.427 456 L 574 456 573.998 447.750 L 573.996 439.500 584.152 439.820 C 599.361 440.299, 599.146 440.417, 598.793 431.720 L 598.500 424.500 586.250 424.219 L 574 423.938 574 417.469 L 574 411 589.500 411 L 605 411 605 403 L 605 395 581 395 L 557 395 557 433.466 M 620 433.500 L 620 472 628.500 472 L 637 472 637 458.623 L 637 445.246 641.750 445.735 C 646.806 446.256, 649.399 448.332, 648.641 451.251 C 648.362 452.327, 648.602 452.746, 649.263 452.337 C 649.951 451.912, 650.102 452.292, 649.681 453.388 C 649.302 454.378, 649.428 454.853, 649.981 454.512 C 650.508 454.186, 652.983 457.988, 655.480 462.960 L 660.020 472 668.888 472 C 675.693 472, 678.056 471.638, 679.047 470.444 C 680.115 469.157, 680.093 468.940, 678.919 469.194 C 678.016 469.389, 677.527 468.701, 677.574 467.300 C 677.615 466.090, 677.318 465.303, 676.915 465.553 C 676.511 465.802, 675.241 464.063, 674.091 461.687 C 671.718 456.787, 671.495 455.570, 673.155 456.595 C 673.876 457.041, 674.037 456.869, 673.585 456.138 C 673.187 455.494, 672.366 455.274, 671.761 455.648 C 671.046 456.090, 670.891 455.727, 671.319 454.612 C 671.710 453.591, 671.576 453.144, 670.987 453.508 C 669.770 454.260, 667.729 449.247, 668.647 447.762 C 669.030 447.143, 668.840 446.981, 668.197 447.378 C 667.547 447.780, 666.389 446.720, 665.410 444.827 C 664.028 442.154, 663.977 441.513, 665.118 441.157 C 667.925 440.281, 674.914 431.970, 675.935 428.294 C 678.120 420.428, 676.540 409.465, 672.595 405.105 C 670.460 402.745, 670.562 401.419, 672.750 403.097 C 673.712 403.835, 673.409 403.216, 672.076 401.720 C 669.648 398.996, 668.340 398.123, 669.500 400 C 670.425 401.496, 668.416 401.206, 667.131 399.658 C 666.519 398.920, 666.351 397.948, 666.759 397.498 C 667.166 397.048, 667.014 396.956, 666.421 397.293 C 665.827 397.631, 663.168 397.253, 660.512 396.454 C 657.068 395.417, 650.564 395, 637.841 395 L 620 395 620 433.500 M 695 433.500 L 695 472 703.500 472 L 712 472 712 433.500 L 712 395 703.500 395 L 695 395 695 433.500 M 727.238 433.250 L 727.500 471.500 735.320 471.500 L 743.140 471.500 743.057 447.500 C 742.986 426.846, 743.162 423.848, 744.321 426 C 746.326 429.723, 753.816 441.805, 757.642 447.487 C 761.106 452.630, 761.857 454.648, 759.845 453.405 C 759.124 452.959, 758.963 453.131, 759.415 453.862 C 759.813 454.506, 760.535 454.788, 761.019 454.488 C 762.225 453.743, 764.262 457.767, 763.392 459.175 C 762.969 459.859, 763.137 460.034, 763.813 459.615 C 764.493 459.196, 766.625 461.494, 769.218 465.440 L 773.500 471.958 782.750 471.979 L 792 472 792 433.500 L 792 395 784.018 395 L 776.036 395 775.768 419.250 L 775.500 443.500 770.220 436.050 C 767.316 431.953, 765.173 427.992, 765.458 427.248 C 765.744 426.505, 765.552 426.159, 765.033 426.480 C 763.806 427.238, 755.887 414.904, 756.505 413.198 C 756.765 412.482, 756.549 412.161, 756.026 412.484 C 754.686 413.312, 749.640 405.391, 750.560 403.903 C 751.037 403.131, 750.889 402.950, 750.153 403.405 C 749.439 403.847, 747.948 402.391, 746.249 399.591 L 743.500 395.063 735.238 395.032 L 726.976 395 727.238 433.250 M 411.454 434 C 411.454 455.175, 411.587 463.838, 411.749 453.250 C 411.911 442.663, 411.911 425.338, 411.749 414.750 C 411.587 404.163, 411.454 412.825, 411.454 434 M 555.454 434 C 555.454 455.175, 555.587 463.838, 555.749 453.250 C 555.911 442.663, 555.911 425.338, 555.749 414.750 C 555.587 404.163, 555.454 412.825, 555.454 434 M 462.310 402.500 C 462.315 405.800, 462.502 407.029, 462.725 405.232 C 462.947 403.435, 462.943 400.735, 462.715 399.232 C 462.486 397.729, 462.304 399.200, 462.310 402.500 M 481.392 411 C 481.392 418.425, 481.549 421.462, 481.742 417.750 C 481.934 414.038, 481.934 407.962, 481.742 404.250 C 481.549 400.538, 481.392 403.575, 481.392 411 M 492.360 409 C 492.360 414.225, 492.529 416.363, 492.735 413.750 C 492.941 411.137, 492.941 406.863, 492.735 404.250 C 492.529 401.637, 492.360 403.775, 492.360 409 M 287.355 414.500 C 287.352 419.450, 287.521 421.601, 287.731 419.280 C 287.940 416.959, 287.943 412.909, 287.736 410.280 C 287.530 407.651, 287.358 409.550, 287.355 414.500 M 636.998 420.750 L 636.995 430.500 644.508 430.171 C 648.639 429.990, 651.790 429.469, 651.509 429.014 C 651.227 428.559, 651.837 428.406, 652.862 428.674 C 655.347 429.324, 659 424.637, 659 420.799 C 659 414.042, 654.198 411, 643.532 411 L 637 411 636.998 420.750 M 177.185 417.750 L 177.370 423.500 177.736 418.278 L 178.103 413.056 191.801 412.747 L 205.500 412.439 191.250 412.219 L 177 412 177.185 417.750 M 519.750 412.743 C 523.737 412.932, 530.263 412.932, 534.250 412.743 C 538.237 412.553, 534.975 412.397, 527 412.397 C 519.025 412.397, 515.763 412.553, 519.750 412.743 M 574.998 412.750 C 574.997 413.163, 579.384 413.381, 584.748 413.235 C 602.816 412.743, 604.587 412.371, 589.750 412.185 C 581.638 412.083, 574.999 412.337, 574.998 412.750 M 640.768 412.725 C 642.565 412.947, 645.265 412.943, 646.768 412.715 C 648.271 412.486, 646.800 412.304, 643.500 412.310 C 640.200 412.315, 638.971 412.502, 640.768 412.725 M 492.436 444.500 C 492.436 458.800, 492.577 464.511, 492.748 457.191 C 492.919 449.871, 492.918 438.171, 492.747 431.191 C 492.575 424.211, 492.435 430.200, 492.436 444.500 M 584.728 422.722 C 586.503 422.943, 589.653 422.946, 591.728 422.730 C 593.802 422.513, 592.350 422.333, 588.500 422.328 C 584.650 422.324, 582.952 422.501, 584.728 422.722 M 461.835 431.502 C 461.651 435.078, 461.837 438.003, 462.250 438.002 C 462.663 438.001, 463 435.075, 463 431.500 C 463 427.925, 462.813 425, 462.585 425 C 462.357 425, 462.020 427.926, 461.835 431.502 M 431 433 C 431 435.933, 431.184 438.146, 431.409 437.917 C 432.171 437.141, 432.424 429.090, 431.709 428.376 C 431.319 427.986, 431 430.067, 431 433 M 182.789 441.741 C 186.248 441.937, 191.648 441.936, 194.789 441.738 C 197.930 441.540, 195.100 441.380, 188.500 441.382 C 181.900 441.384, 179.330 441.546, 182.789 441.741 M 518.250 441.739 C 521.413 441.937, 526.587 441.937, 529.750 441.739 C 532.913 441.541, 530.325 441.378, 524 441.378 C 517.675 441.378, 515.087 441.541, 518.250 441.739 M 575.412 442.369 C 575.123 443.122, 575.024 446.160, 575.193 449.119 L 575.500 454.500 588.500 454.544 L 601.500 454.587 588.750 454.264 L 576 453.942 576 448.003 L 576 442.063 587.750 441.747 L 599.500 441.430 587.719 441.215 C 578.519 441.047, 575.822 441.300, 575.412 442.369 M 177.320 449 C 177.320 452.575, 177.502 454.038, 177.723 452.250 C 177.945 450.462, 177.945 447.538, 177.723 445.750 C 177.502 443.962, 177.320 445.425, 177.320 449 M 188.789 454.741 C 192.248 454.937, 197.648 454.936, 200.789 454.738 C 203.930 454.540, 201.100 454.380, 194.500 454.382 C 187.900 454.384, 185.330 454.546, 188.789 454.741 M 520.797 454.745 C 525.361 454.930, 532.561 454.929, 536.797 454.742 C 541.034 454.555, 537.300 454.404, 528.500 454.405 C 519.700 454.406, 516.234 454.559, 520.797 454.745 M 170.803 473.746 C 176.470 473.925, 185.470 473.924, 190.803 473.745 C 196.136 473.565, 191.500 473.419, 180.500 473.420 C 169.500 473.421, 165.136 473.568, 170.803 473.746 M 418.776 473.733 C 421.128 473.945, 424.728 473.942, 426.776 473.727 C 428.824 473.512, 426.900 473.339, 422.500 473.343 C 418.100 473.346, 416.424 473.522, 418.776 473.733 M 467.280 473.736 C 469.909 473.943, 473.959 473.940, 476.280 473.731 C 478.601 473.521, 476.450 473.352, 471.500 473.355 C 466.550 473.358, 464.651 473.530, 467.280 473.736 M 507.250 473.747 C 513.712 473.921, 524.288 473.921, 530.750 473.747 C 537.212 473.573, 531.925 473.430, 519 473.430 C 506.075 473.430, 500.788 473.573, 507.250 473.747 M 569.304 473.747 C 575.247 473.924, 584.697 473.923, 590.304 473.745 C 595.912 473.567, 591.050 473.422, 579.500 473.423 C 567.950 473.424, 563.362 473.570, 569.304 473.747 M 667.250 473.728 C 669.313 473.944, 672.688 473.944, 674.750 473.728 C 676.813 473.513, 675.125 473.336, 671 473.336 C 666.875 473.336, 665.188 473.513, 667.250 473.728 M 699.750 473.732 C 702.087 473.943, 705.913 473.943, 708.250 473.732 C 710.587 473.522, 708.675 473.349, 704 473.349 C 699.325 473.349, 697.413 473.522, 699.750 473.732 M 731.750 473.732 C 734.087 473.943, 737.913 473.943, 740.250 473.732 C 742.587 473.522, 740.675 473.349, 736 473.349 C 731.325 473.349, 729.413 473.522, 731.750 473.732 M 779.750 473.732 C 782.087 473.943, 785.913 473.943, 788.250 473.732 C 790.587 473.522, 788.675 473.349, 784 473.349 C 779.325 473.349, 777.413 473.522, 779.750 473.732 M 627.320 504.291 C 627.051 504.726, 625.970 504.808, 624.916 504.473 C 623.770 504.110, 623 504.337, 623 505.040 C 623 505.690, 622.308 505.948, 621.448 505.618 C 620.434 505.229, 620.144 505.425, 620.612 506.181 C 621.107 506.982, 620.746 507.117, 619.445 506.617 C 618.409 506.220, 617.870 506.203, 618.247 506.580 C 618.624 506.957, 617.148 508.559, 614.966 510.139 C 612.785 511.720, 611 513.486, 611 514.065 C 611 514.644, 610.480 514.797, 609.845 514.405 C 609.161 513.982, 608.961 514.128, 609.355 514.765 C 609.720 515.356, 609.361 516.496, 608.557 517.300 C 607.753 518.104, 607.374 519.040, 607.714 519.381 C 608.055 519.721, 607.873 520, 607.310 520 C 606.671 520, 606.286 524.312, 606.286 531.471 C 606.286 538.762, 606.645 542.719, 607.273 542.332 C 607.815 541.996, 608.060 542.319, 607.817 543.048 C 607.574 543.778, 608.207 545.207, 609.224 546.224 C 610.241 547.241, 610.759 548.619, 610.376 549.286 C 609.993 549.954, 610.048 550.166, 610.498 549.759 C 611.617 548.744, 614.135 550.972, 613.334 552.268 C 612.974 552.852, 613.171 553.012, 613.784 552.633 C 614.385 552.262, 615.283 552.683, 615.778 553.569 C 616.274 554.454, 616.864 555.102, 617.090 555.008 C 618.132 554.572, 622.933 556.299, 622.523 556.962 C 622.269 557.374, 623.239 557.486, 624.679 557.211 C 626.119 556.935, 627.048 557.113, 626.744 557.605 C 626.436 558.103, 629.699 558.500, 634.095 558.500 C 638.443 558.500, 642 558.110, 642 557.633 C 642 557.157, 642.900 557.002, 644 557.290 C 645.100 557.577, 646 557.459, 646 557.028 C 646 556.108, 652.116 553.402, 653.324 553.787 C 653.778 553.931, 653.864 553.588, 653.515 553.025 C 653.167 552.461, 653.342 552, 653.905 552 C 654.468 552, 655.997 550.427, 657.303 548.505 C 658.609 546.583, 659.878 545.212, 660.124 545.458 C 660.669 546.002, 660.785 545.090, 661.743 532.749 C 662.159 527.386, 662.121 522.873, 661.658 522.719 C 661.195 522.565, 660.745 521.258, 660.658 519.815 C 660.571 518.372, 660.086 517.448, 659.580 517.760 C 659.071 518.074, 658.954 517.562, 659.319 516.612 C 659.681 515.668, 659.645 515.046, 659.239 515.229 C 658.234 515.681, 651.120 508.214, 651.855 507.479 C 652.176 507.157, 651.591 507.220, 650.555 507.617 C 649.254 508.117, 648.893 507.982, 649.388 507.181 C 649.870 506.401, 649.544 506.238, 648.388 506.681 C 647.292 507.102, 646.912 506.951, 647.337 506.263 C 647.768 505.566, 647.241 505.386, 645.845 505.751 C 644.226 506.174, 643.892 505.983, 644.508 504.988 C 645.113 504.009, 644.867 503.837, 643.574 504.333 C 642.609 504.704, 641.334 504.707, 640.741 504.340 C 639.200 503.387, 627.903 503.346, 627.320 504.291 M 802.455 508.455 C 799.218 511.691, 799.356 514.509, 802.923 518.077 C 806.646 521.800, 809.381 521.772, 813.179 517.975 C 815.604 515.550, 816.076 514.409, 815.559 512.225 C 814.102 506.067, 806.911 503.998, 802.455 508.455 M 296.002 511.326 C 296.001 511.780, 294.087 512.059, 291.750 511.946 C 289.413 511.834, 286.712 512.073, 285.750 512.478 C 284.788 512.883, 283.325 512.955, 282.500 512.638 C 281.675 512.322, 281 512.547, 281 513.140 C 281 513.789, 280.008 513.968, 278.500 513.589 C 276.933 513.196, 276 513.386, 276 514.098 C 276 514.741, 275.133 515.006, 273.999 514.710 C 272.738 514.380, 272.241 514.581, 272.655 515.251 C 273.076 515.933, 272.538 516.112, 271.156 515.751 C 269.970 515.441, 269 515.643, 269 516.201 C 269 516.758, 268.325 516.955, 267.500 516.638 C 266.675 516.322, 266 516.536, 266 517.115 C 266 517.693, 265.442 517.981, 264.759 517.753 C 264.076 517.525, 262.893 517.964, 262.130 518.727 C 261.367 519.490, 260.125 519.878, 259.371 519.589 C 258.617 519.300, 258 519.525, 258 520.090 C 258 520.656, 257.550 520.840, 257 520.500 C 256.450 520.160, 256 520.328, 256 520.874 C 256 521.840, 251.705 523.686, 251.293 522.897 C 251.179 522.679, 250.460 523.356, 249.695 524.403 C 248.788 525.643, 247.815 526.022, 246.902 525.492 C 246.131 525.045, 245.841 525.055, 246.258 525.514 C 247.110 526.453, 242.040 530.143, 240.881 529.427 C 240.473 529.174, 239.813 529.494, 239.415 530.138 C 238.933 530.917, 239.161 531.061, 240.095 530.568 C 240.868 530.160, 240.388 530.730, 239.028 531.835 C 237.668 532.940, 236.237 533.646, 235.847 533.405 C 235.457 533.165, 234.813 533.494, 234.415 534.138 C 233.961 534.872, 234.125 535.041, 234.852 534.592 C 235.490 534.197, 232.747 537.165, 228.756 541.187 C 224.765 545.209, 221.151 548.354, 220.725 548.176 C 220.299 547.997, 220.071 548.222, 220.217 548.676 C 220.644 549.991, 217.398 554.064, 216.577 553.244 C 216.168 552.835, 215.942 552.950, 216.075 553.500 C 216.515 555.315, 214.812 558.001, 213.645 557.334 C 213.015 556.974, 212.820 557.034, 213.210 557.466 C 214.143 558.500, 211.279 564, 209.808 564 C 209.180 564, 208.946 564.280, 209.288 564.622 C 209.873 565.206, 205.461 574.916, 204.119 576 C 203.778 576.275, 203.455 577.063, 203.400 577.750 C 203.094 581.576, 202.913 582.064, 202.011 581.507 C 201.445 581.157, 201.277 581.558, 201.618 582.448 C 201.946 583.302, 201.730 584, 201.138 584 C 200.547 584, 200.322 584.675, 200.638 585.500 C 200.955 586.325, 200.758 587, 200.201 587 C 199.643 587, 199.423 587.900, 199.710 589 C 199.998 590.100, 199.773 591, 199.210 591 C 198.648 591, 198.441 591.970, 198.751 593.156 C 199.097 594.478, 198.923 595.070, 198.302 594.687 C 197.681 594.303, 197.472 595.017, 197.761 596.530 C 198.021 597.889, 197.809 599, 197.290 599 C 196.771 599, 196.545 600.350, 196.787 602 C 197.029 603.650, 196.827 605, 196.337 605 C 195.848 605, 195.619 606.800, 195.829 609 C 196.038 611.200, 195.825 613.001, 195.355 613.003 C 194.885 613.005, 194.484 617.955, 194.464 624.003 C 194.444 630.051, 194.828 635, 195.319 635 C 195.809 635, 196.038 636.800, 195.829 639 C 195.619 641.200, 195.848 643, 196.337 643 C 196.827 643, 197.029 644.350, 196.787 646 C 196.545 647.650, 196.626 649, 196.967 649 C 197.910 649, 200.041 660.125, 199.321 661.290 C 198.933 661.917, 199.196 661.997, 200.003 661.498 C 200.980 660.894, 201.171 661.237, 200.751 662.844 C 200.441 664.030, 200.643 665, 201.201 665 C 201.758 665, 201.955 665.675, 201.638 666.500 C 201.322 667.325, 201.547 668, 202.138 668 C 202.730 668, 202.946 668.698, 202.618 669.552 C 202.291 670.406, 202.404 670.868, 202.871 670.580 C 203.964 669.904, 207.149 677.950, 206.319 679.292 C 205.974 679.852, 206.178 680.008, 206.773 679.640 C 207.808 679, 209.644 682.584, 209.173 684.324 C 209.051 684.778, 209.488 684.816, 210.145 684.410 C 210.967 683.902, 211.134 684.207, 210.681 685.388 C 210.319 686.332, 210.402 686.870, 210.865 686.583 C 211.739 686.043, 214.501 690.872, 214.150 692.324 C 214.040 692.778, 214.364 692.893, 214.870 692.580 C 215.718 692.056, 216.638 693.347, 216.821 695.316 C 216.863 695.764, 218.049 697.038, 219.458 698.146 C 220.867 699.254, 221.782 700.543, 221.493 701.011 C 221.204 701.479, 221.494 702.187, 222.138 702.585 C 222.929 703.074, 223.049 702.853, 222.509 701.905 C 221.828 700.709, 226.332 705.597, 230.824 710.928 C 231.880 712.182, 231.994 712.196, 231.386 711 C 230.966 710.175, 232.459 711.075, 234.703 713 C 242.516 719.703, 244 720.844, 244.032 720.174 C 244.049 719.803, 244.724 720.374, 245.532 721.441 C 246.339 722.509, 247 723.093, 247 722.740 C 247 721.934, 262.386 729.142, 262.815 730.148 C 262.988 730.555, 263.775 730.640, 264.565 730.337 C 265.354 730.034, 266.002 730.172, 266.004 730.643 C 266.007 731.114, 267.686 731.588, 269.736 731.695 C 271.786 731.802, 273.606 732.317, 273.780 732.839 C 273.954 733.361, 274.974 733.558, 276.048 733.277 C 277.122 732.996, 278 733.241, 278 733.820 C 278 734.475, 279.386 734.649, 281.655 734.281 C 283.742 733.942, 285.071 734.077, 284.752 734.594 C 284.432 735.112, 288.434 735.500, 294.096 735.500 C 299.543 735.500, 304 735.837, 304 736.250 C 304 736.663, 303.984 737.241, 303.964 737.536 C 303.945 737.830, 304.624 738.767, 305.473 739.616 C 306.323 740.466, 306.763 741.575, 306.450 742.081 C 306.138 742.586, 306.337 743, 306.893 743 C 307.449 743, 309.297 745.025, 311 747.500 C 312.703 749.975, 313.867 752, 313.588 752 C 313.308 752, 316.164 754.897, 319.934 758.438 C 323.705 761.980, 326.500 765.167, 326.145 765.522 C 325.790 765.876, 325.950 766.019, 326.500 765.840 C 327.784 765.419, 335 769.869, 335 771.082 C 335 771.587, 335.361 771.888, 335.802 771.750 C 337.049 771.362, 347 776.232, 347 777.230 C 347 777.718, 347.398 777.872, 347.885 777.571 C 348.654 777.096, 351.041 777.650, 357 779.689 C 362.073 781.425, 379 781.382, 379 779.633 C 379 779.157, 379.900 779.002, 381 779.290 C 382.100 779.577, 383 779.357, 383 778.799 C 383 778.242, 383.675 778.045, 384.500 778.362 C 385.325 778.678, 386 778.426, 386 777.802 C 386 777.178, 386.275 776.942, 386.612 777.279 C 386.948 777.615, 389.416 775.733, 392.095 773.095 C 394.775 770.458, 397.087 768.345, 397.233 768.400 C 397.380 768.455, 397.403 768.328, 397.285 768.119 C 397.167 767.909, 397.587 766.784, 398.219 765.619 C 399.421 763.403, 400.948 748, 399.967 748 C 399.412 748, 396.609 740.979, 396.774 740 C 396.977 738.789, 393.519 736, 391.814 736 C 390.782 736, 389.720 735.438, 389.455 734.750 C 389.190 734.063, 387.520 733.397, 385.744 733.271 C 383.967 733.145, 382.369 732.608, 382.192 732.077 C 382.016 731.547, 381.246 731.352, 380.483 731.645 C 379.720 731.938, 378.512 731.814, 377.798 731.369 C 377.084 730.925, 375.488 730.693, 374.250 730.852 C 373.012 731.012, 372 730.672, 372 730.097 C 372 729.467, 370.805 729.289, 369 729.650 C 367.104 730.029, 366 729.840, 366 729.137 C 366 728.525, 365.212 728.090, 364.250 728.170 C 360.145 728.514, 355.924 727.932, 356.442 727.093 C 356.751 726.595, 356.032 726.440, 354.845 726.751 C 353.274 727.162, 352.900 726.971, 353.469 726.050 C 354.053 725.105, 353.651 724.962, 351.875 725.485 L 349.500 726.185 352 724.350 C 353.375 723.341, 354.837 722.625, 355.250 722.758 C 355.663 722.891, 356 722.523, 356 721.941 C 356 721.359, 356.450 721.160, 357 721.500 C 357.550 721.840, 358 721.653, 358 721.085 C 358 720.050, 363.567 716.721, 364.446 717.230 C 364.704 717.378, 365.594 716.600, 366.425 715.500 C 367.256 714.400, 367.951 713.786, 367.968 714.135 C 367.986 714.484, 369.645 713.263, 371.655 711.422 C 373.665 709.580, 375.615 708.262, 375.987 708.492 C 376.771 708.976, 385.855 699.993, 386.090 698.500 C 386.387 696.622, 389.733 693.066, 390.528 693.784 C 390.964 694.178, 391.032 693.994, 390.679 693.376 C 390.326 692.758, 391.142 691.059, 392.493 689.602 C 393.844 688.145, 394.941 686.626, 394.931 686.226 C 394.896 684.834, 399.135 678, 400.033 678 C 400.530 678, 400.650 677.251, 400.299 676.336 C 399.835 675.128, 400.023 674.896, 400.985 675.490 C 401.819 676.006, 402.069 675.920, 401.659 675.258 C 400.910 674.045, 403.339 667.672, 404.217 668.550 C 404.538 668.871, 404.774 668.541, 404.742 667.817 C 404.592 664.365, 405.073 662.927, 406.155 663.595 C 406.877 664.042, 407.037 663.869, 406.583 663.135 C 405.952 662.113, 406.846 657.891, 408.730 653 C 409.047 652.175, 409.210 650.712, 409.091 649.750 C 408.972 648.788, 409.324 648, 409.874 648 C 410.467 648, 410.633 646.510, 410.281 644.345 C 409.942 642.258, 410.077 640.930, 410.594 641.250 C 411.121 641.576, 411.500 634.993, 411.500 625.502 C 411.500 616.433, 411.111 609.433, 410.625 609.733 C 410.143 610.030, 409.940 608.637, 410.174 606.636 C 410.407 604.636, 410.186 603, 409.683 603 C 409.179 603, 408.982 601.875, 409.245 600.500 C 409.508 599.125, 409.283 598, 408.745 598 C 408.207 598, 408.002 597.100, 408.290 596 C 408.577 594.900, 408.357 594, 407.799 594 C 407.242 594, 407.040 593.339, 407.349 592.532 C 407.659 591.725, 407.452 590.779, 406.888 590.431 C 406.325 590.083, 406.105 589.168, 406.400 588.399 C 406.696 587.629, 406.545 587, 406.066 587 C 404.942 587, 402.854 581.046, 403.571 579.885 C 403.872 579.398, 403.718 579, 403.230 579 C 402.232 579, 397.362 569.049, 397.750 567.802 C 397.887 567.361, 397.475 567, 396.833 567 C 396.192 567, 395.960 566.707, 396.318 566.349 C 396.676 565.991, 396.326 565.203, 395.539 564.599 C 394.753 563.994, 393.973 562.880, 393.805 562.121 C 393.637 561.363, 392.275 559.363, 390.777 557.678 C 389.279 555.992, 388.230 554.436, 388.446 554.220 C 388.662 554.004, 387.413 552.458, 385.669 550.783 C 383.926 549.109, 383.400 548.346, 384.500 549.088 C 385.600 549.830, 383.350 547.536, 379.500 543.990 C 375.650 540.444, 370.950 535.959, 369.055 534.022 C 367.161 532.085, 365.958 531.175, 366.382 532 C 366.806 532.825, 366.185 532.396, 365.002 531.048 C 363.820 529.699, 362.110 528.487, 361.203 528.354 C 360.297 528.221, 359.092 527.479, 358.527 526.707 C 357.962 525.934, 357.275 525.300, 357 525.298 C 355.083 525.282, 352.073 523.691, 352.537 522.939 C 352.850 522.434, 352.334 522.318, 351.388 522.681 C 350.231 523.125, 349.905 522.962, 350.388 522.181 C 350.870 521.401, 350.544 521.238, 349.388 521.681 C 348.132 522.164, 347.891 521.985, 348.490 521.015 C 348.995 520.198, 348.920 519.932, 348.292 520.319 C 347.091 521.062, 339 518.067, 339 516.880 C 339 516.430, 338.325 516.322, 337.500 516.638 C 336.675 516.955, 336 516.730, 336 516.138 C 336 515.547, 335.371 515.304, 334.601 515.600 C 333.832 515.895, 332.931 515.698, 332.600 515.162 C 332.269 514.626, 331.028 514.441, 329.843 514.751 C 328.522 515.097, 327.930 514.923, 328.313 514.302 C 328.697 513.681, 327.983 513.472, 326.470 513.761 C 325.071 514.028, 324 513.763, 324 513.148 C 324 512.551, 323.325 512.322, 322.500 512.638 C 321.675 512.955, 320.212 512.868, 319.250 512.444 C 318.288 512.021, 315.083 511.793, 312.129 511.938 C 308.888 512.096, 306.993 511.820, 307.351 511.241 C 307.708 510.664, 305.560 510.324, 301.975 510.390 C 298.691 510.451, 296.003 510.871, 296.002 511.326 M 705.173 527.269 C 703.342 527.855, 699.691 530.270, 697.059 532.637 C 694.427 535.003, 691.915 536.616, 691.476 536.220 C 691.038 535.824, 690.997 536.053, 691.386 536.730 C 691.775 537.406, 691.397 540.009, 690.547 542.515 C 687.770 550.693, 689.226 561.658, 693.873 567.565 C 695.028 569.034, 695.759 570.581, 695.497 571.004 C 695.236 571.427, 695.778 572.387, 696.703 573.137 C 698.126 574.291, 698.256 574.288, 697.553 573.120 C 696.975 572.161, 697.145 571.894, 698.111 572.245 C 698.875 572.523, 699.425 573.144, 699.333 573.625 C 699.242 574.106, 700.142 574.594, 701.333 574.709 C 702.525 574.823, 706.248 575.210, 709.607 575.568 C 714.610 576.102, 716.578 575.838, 720.485 574.110 C 725.833 571.744, 726.353 571.620, 725.564 572.897 C 725.259 573.390, 725.294 575.865, 725.641 578.397 L 726.272 583 732.206 583 L 738.140 583 737.907 560.054 C 737.778 547.434, 737.399 537.197, 737.064 537.304 C 735.942 537.665, 729.026 529.308, 729.768 528.488 C 730.171 528.043, 729.985 527.973, 729.356 528.333 C 728.728 528.692, 726.308 528.314, 723.981 527.493 C 719.173 525.797, 710.110 525.689, 705.173 527.269 M 823.778 530 C 824.556 538.517, 823.754 538, 836.174 538 C 847.171 538, 847.288 538.024, 845.536 539.960 C 844.560 541.038, 843.253 541.826, 842.631 541.710 C 842.009 541.595, 841.628 542.110, 841.785 542.855 C 842.137 544.526, 840.074 547.164, 838.956 546.473 C 838.506 546.195, 837.813 546.494, 837.415 547.138 C 836.963 547.869, 837.124 548.041, 837.845 547.595 C 838.480 547.203, 839 547.303, 839 547.819 C 839 549.039, 836.468 551.135, 835.800 550.467 C 835.517 550.184, 834.658 550.724, 833.893 551.668 C 832.971 552.803, 832.923 553.130, 833.750 552.633 C 835.832 551.382, 835.167 553.001, 831.912 557.111 C 830.214 559.255, 828.344 560.713, 827.758 560.350 C 827.130 559.962, 826.983 560.164, 827.401 560.840 C 827.791 561.471, 826.961 563.496, 825.555 565.339 C 824.063 567.296, 823 570.001, 823 571.844 L 823 575 844.500 575 L 866 575 866 570 L 866 565 853.500 565 C 846.625 565, 841 564.738, 841 564.418 C 841 562.887, 848.354 555.101, 849.267 555.665 C 849.871 556.038, 850.010 555.826, 849.599 555.160 C 848.687 553.684, 853.884 546.810, 855.266 547.664 C 855.840 548.019, 856.033 547.863, 855.696 547.317 C 854.802 545.871, 857.923 541.844, 859.318 542.644 C 859.968 543.016, 860.180 542.966, 859.790 542.534 C 859.399 542.101, 859.737 540.476, 860.540 538.923 C 861.343 537.370, 862 534.070, 862 531.591 L 862 527.082 842.729 526.791 L 823.458 526.500 823.778 530 M 748.386 545.750 C 748.977 566.134, 749.194 568.998, 750.097 568.440 C 750.862 567.967, 756.183 573.483, 755.562 574.105 C 754.972 574.695, 756.486 574.892, 767.101 575.611 C 774.615 576.119, 776.230 575.923, 779.885 574.059 C 782.186 572.885, 784.443 572.156, 784.901 572.439 C 785.358 572.721, 786.580 571.986, 787.616 570.805 C 788.652 569.623, 788.879 569.021, 788.120 569.467 C 787.167 570.027, 786.897 569.849, 787.245 568.889 C 787.523 568.125, 788.191 567.591, 788.730 567.702 C 789.340 567.827, 789.789 560.174, 789.918 547.452 L 790.125 527 784.128 527 L 778.132 527 777.816 544.090 C 777.510 560.664, 777.429 561.239, 775.139 563.090 C 771.851 565.750, 767.433 565.524, 764.455 562.545 C 762.046 560.137, 762 559.779, 762 543.545 L 762 527 754.921 527 L 747.841 527 748.386 545.750 M 801 551 L 801 575 806.066 575 C 808.852 575, 811.889 575.406, 812.816 575.902 C 814.377 576.739, 814.479 574.990, 814.217 551.902 L 813.933 527 807.467 527 L 801 527 801 551 M 776.385 540 C 776.385 546.875, 776.545 549.688, 776.740 546.250 C 776.936 542.813, 776.936 537.188, 776.740 533.750 C 776.545 530.313, 776.385 533.125, 776.385 540 M 799.430 551 C 799.430 563.925, 799.573 569.212, 799.747 562.750 C 799.921 556.288, 799.921 545.712, 799.747 539.250 C 799.573 532.788, 799.430 538.075, 799.430 551 M 709.882 538.750 C 709.816 539.163, 709.811 539.821, 709.870 540.214 C 709.928 540.607, 709.325 540.678, 708.529 540.373 C 706.342 539.533, 703.008 545.745, 703.004 550.668 C 702.999 555.511, 703.835 558.220, 705.093 557.442 C 705.579 557.142, 705.681 557.668, 705.319 558.612 C 704.875 559.769, 705.038 560.095, 705.819 559.612 C 706.551 559.160, 706.778 559.416, 706.435 560.309 C 705.634 562.396, 712.332 565.306, 716.056 564.488 C 717.685 564.130, 718.793 563.475, 718.519 563.032 C 718.246 562.588, 718.804 562.288, 719.761 562.363 C 720.717 562.438, 721.388 561.938, 721.250 561.250 C 721.113 560.563, 721.563 560.113, 722.250 560.250 C 722.963 560.393, 723.468 559.555, 723.426 558.300 C 723.385 557.090, 723.723 556.329, 724.176 556.609 C 724.629 556.889, 725 554.346, 725 550.959 C 725 545.288, 724.731 544.531, 721.600 541.400 C 718.839 538.639, 717.429 538, 714.100 538 C 711.845 538, 709.947 538.337, 709.882 538.750 M 739.409 560.500 C 739.408 569.850, 739.558 573.810, 739.743 569.299 C 739.928 564.789, 739.929 557.139, 739.745 552.299 C 739.562 547.460, 739.410 551.150, 739.409 560.500 M 298.527 560.956 C 298.202 561.482, 297.275 561.659, 296.468 561.349 C 295.661 561.040, 294.212 561.128, 293.250 561.547 C 292.288 561.965, 290.663 562.202, 289.641 562.072 C 288.536 561.933, 288.050 562.271, 288.443 562.907 C 288.849 563.565, 288.506 563.748, 287.552 563.382 C 286.696 563.053, 286 563.309, 286 563.952 C 286 564.593, 285.584 564.861, 285.075 564.546 C 283.821 563.771, 278.930 566.077, 279.583 567.135 C 279.870 567.598, 279.454 567.728, 278.659 567.423 C 274.953 566.001, 254.392 590.589, 256.472 593.955 C 256.827 594.530, 256.593 595, 255.952 595 C 255.311 595, 255.045 595.675, 255.362 596.500 C 255.678 597.325, 255.453 598, 254.862 598 C 254.270 598, 254.034 598.646, 254.337 599.435 C 254.640 600.225, 254.438 601.021, 253.889 601.204 C 253.340 601.387, 252.802 603.214, 252.695 605.264 C 252.588 607.314, 252.104 608.993, 251.619 608.996 C 251.135 608.998, 250.994 610.575, 251.306 612.500 C 251.619 614.425, 251.453 616, 250.937 616 C 250.421 616, 250.007 620.153, 250.015 625.250 C 250.025 631.244, 250.353 633.990, 250.947 633.052 C 251.543 632.110, 251.666 633.070, 251.300 635.802 C 250.990 638.111, 251.133 640.002, 251.618 640.004 C 252.103 640.007, 252.588 641.686, 252.695 643.736 C 252.802 645.786, 253.340 647.613, 253.889 647.796 C 254.438 647.979, 254.640 648.775, 254.337 649.565 C 254.034 650.354, 254.311 651, 254.952 651 C 255.593 651, 255.859 651.419, 255.542 651.931 C 254.841 653.066, 258.022 660, 259.244 660 C 259.725 660, 259.875 660.394, 259.577 660.875 C 258.452 662.695, 269.574 676.381, 271.308 675.310 C 271.858 674.970, 272.002 675.188, 271.627 675.795 C 270.966 676.864, 274.728 679.644, 276.250 679.212 C 276.663 679.096, 277 679.438, 277 679.974 C 277 681.094, 281.567 683.635, 284.508 684.151 C 285.604 684.343, 287.130 685.097, 287.899 685.828 C 288.669 686.558, 290.132 686.937, 291.150 686.671 C 292.272 686.378, 292.749 686.597, 292.359 687.228 C 291.945 687.899, 292.848 688.102, 294.902 687.801 C 296.654 687.544, 298.320 687.708, 298.603 688.167 C 299.317 689.322, 307.748 689.217, 308.473 688.044 C 308.798 687.518, 309.740 687.347, 310.567 687.664 C 312.386 688.362, 321 686.081, 321 684.901 C 321 684.440, 321.640 684.308, 322.423 684.609 C 323.205 684.909, 324.705 684.332, 325.756 683.327 C 326.807 682.322, 328.273 681.361, 329.013 681.190 C 333.013 680.269, 346.577 666.742, 345.404 664.844 C 344.979 664.158, 345.129 663.962, 345.773 664.360 C 346.808 665, 348.644 661.416, 348.173 659.676 C 348.051 659.222, 348.364 659.107, 348.870 659.420 C 350.034 660.139, 351.228 657.179, 350.349 655.755 C 349.933 655.082, 350.174 654.989, 351.003 655.502 C 351.980 656.106, 352.171 655.763, 351.751 654.156 C 351.441 652.970, 351.643 652, 352.201 652 C 352.758 652, 352.946 651.302, 352.618 650.448 C 352.232 649.442, 352.426 649.145, 353.169 649.604 C 353.948 650.086, 354.135 649.623, 353.751 648.156 C 353.441 646.970, 353.648 646, 354.210 646 C 354.773 646, 354.998 645.100, 354.710 644 C 354.423 642.900, 354.630 642, 355.170 642 C 355.711 642, 356.020 640.449, 355.856 638.554 C 355.693 636.658, 355.884 634.783, 356.280 634.387 C 357.355 633.312, 357.151 616, 356.063 616 C 355.547 616, 355.381 614.425, 355.694 612.500 C 356.006 610.575, 355.865 608.999, 355.381 608.997 C 354.896 608.995, 354.465 607.382, 354.421 605.412 C 354.378 603.442, 353.928 601.531, 353.421 601.165 C 352.915 600.799, 352.455 599.938, 352.400 599.250 C 352.345 598.563, 352.233 597.073, 352.150 595.941 C 352.057 594.660, 351.564 594.152, 350.845 594.595 C 350.141 595.031, 349.962 594.870, 350.386 594.184 C 351.273 592.750, 348.437 587.060, 345.642 584.663 C 344.464 583.653, 344.175 583.168, 345 583.585 C 346.006 584.094, 345.852 583.546, 344.534 581.922 C 339.952 576.276, 334.609 571.123, 333.834 571.602 C 333.375 571.886, 333 571.632, 333 571.037 C 333 569.476, 323.793 563.866, 322.221 564.469 C 321.411 564.780, 321.171 564.532, 321.604 563.831 C 322.086 563.052, 321.623 562.865, 320.156 563.249 C 318.970 563.559, 318 563.357, 318 562.799 C 318 562.242, 317.325 562.045, 316.500 562.362 C 315.675 562.678, 315 562.449, 315 561.852 C 315 561.231, 313.921 560.973, 312.476 561.249 C 311.088 561.515, 309.711 561.342, 309.417 560.866 C 308.688 559.685, 299.264 559.764, 298.527 560.956 M 848.250 563.739 C 851.413 563.937, 856.587 563.937, 859.750 563.739 C 862.913 563.541, 860.325 563.378, 854 563.378 C 847.675 563.378, 845.087 563.541, 848.250 563.739 M 451 569.367 C 451 569.843, 450.100 569.998, 449 569.710 C 447.900 569.423, 447 569.541, 447 569.972 C 447 570.404, 445.689 571.300, 444.088 571.964 C 440.655 573.385, 434.237 580.211, 434.785 581.856 C 434.995 582.485, 434.792 583, 434.333 583 C 433.875 583, 433.500 604.557, 433.500 630.905 C 433.500 658.410, 433.877 678.577, 434.384 678.263 C 434.871 677.962, 435.063 679.119, 434.811 680.834 C 434.559 682.548, 434.716 684.075, 435.159 684.226 C 435.603 684.377, 436.086 686.187, 436.233 688.248 C 436.380 690.309, 436.886 691.997, 437.357 691.998 C 437.828 691.999, 437.946 692.698, 437.618 693.552 C 437.232 694.558, 437.426 694.855, 438.169 694.396 C 438.949 693.914, 439.135 694.377, 438.751 695.845 C 438.440 697.032, 438.513 697.801, 438.912 697.555 C 439.561 697.153, 442.094 702.803, 442.128 704.729 C 442.136 705.153, 442.795 705.865, 443.592 706.311 C 444.390 706.758, 444.781 707.545, 444.462 708.061 C 444.143 708.578, 444.373 709, 444.972 709 C 445.572 709, 446.363 709.788, 446.731 710.750 C 447.586 712.989, 449.779 715.251, 453.250 717.471 C 454.762 718.438, 456 719.880, 456 720.674 C 456 721.468, 456.453 721.838, 457.007 721.496 C 457.561 721.153, 458.283 721.574, 458.612 722.431 C 458.941 723.288, 459.544 723.782, 459.953 723.529 C 460.362 723.276, 461.570 723.841, 462.638 724.785 C 463.705 725.728, 465.236 726.646, 466.039 726.825 C 466.843 727.004, 467.642 727.541, 467.815 728.019 C 467.988 728.497, 468.849 728.611, 469.729 728.274 C 470.712 727.896, 471.077 728.067, 470.675 728.717 C 470.316 729.299, 470.579 729.754, 471.261 729.730 C 474.394 729.617, 476.071 730.076, 475.558 730.907 C 475.249 731.405, 475.898 731.578, 476.999 731.290 C 478.099 731.002, 479 731.207, 479 731.745 C 479 732.283, 480.192 732.495, 481.649 732.216 C 483.598 731.844, 484.093 732.041, 483.523 732.962 C 482.957 733.878, 483.318 734.034, 484.866 733.543 C 486.030 733.173, 487.478 733.177, 488.083 733.551 C 488.689 733.926, 491.505 734.372, 494.342 734.543 C 497.179 734.714, 502.823 735.166, 506.883 735.548 C 512.561 736.081, 514.093 735.960, 513.516 735.026 C 512.950 734.110, 514.271 733.895, 518.884 734.155 C 522.250 734.345, 525.003 734.104, 525.002 733.619 C 525.001 733.135, 526.548 732.990, 528.441 733.297 C 530.333 733.604, 532.021 733.460, 532.191 732.976 C 532.361 732.493, 534.300 731.883, 536.500 731.620 C 538.700 731.357, 540.612 731.054, 540.750 730.946 C 540.888 730.838, 541.450 730.638, 542 730.500 C 542.550 730.362, 543.337 730.140, 543.750 730.007 C 544.163 729.873, 544.837 729.816, 545.250 729.882 C 545.663 729.947, 546 729.523, 546 728.941 C 546 728.359, 546.450 728.160, 547 728.500 C 547.550 728.840, 548 728.593, 548 727.952 C 548 727.311, 548.638 727.031, 549.417 727.330 C 550.197 727.629, 551.101 727.180, 551.426 726.333 C 551.769 725.440, 552.665 725.041, 553.560 725.385 C 554.444 725.724, 554.843 725.554, 554.493 724.989 C 554.157 724.445, 554.359 724, 554.941 724 C 556.604 724, 557.073 723.703, 560.802 720.287 C 562.732 718.520, 564.702 717.316, 565.180 717.611 C 565.658 717.907, 565.926 717.573, 565.775 716.870 C 565.624 716.166, 566.175 715.550, 567 715.500 C 567.825 715.450, 568.391 714.878, 568.258 714.229 C 568.125 713.579, 569.345 712.066, 570.969 710.865 C 572.593 709.664, 573.686 708.300, 573.397 707.834 C 573.109 707.367, 573.574 706.717, 574.431 706.388 C 575.288 706.059, 575.740 705.388, 575.435 704.895 C 575.131 704.403, 575.359 704, 575.941 704 C 576.523 704, 576.911 703.663, 576.802 703.250 C 576.430 701.843, 578.132 698, 579.126 698 C 579.672 698, 579.886 697.624, 579.602 697.165 C 578.943 696.099, 581.092 689, 582.074 689 C 582.480 689, 582.577 688.100, 582.290 687 C 582.002 685.900, 582.207 685, 582.745 685 C 583.283 685, 583.508 683.875, 583.245 682.500 C 582.982 681.125, 583.157 680, 583.633 680 C 584.110 680, 584.500 658.407, 584.500 632 C 584.500 605.601, 584.163 584, 583.750 584 C 583.337 584, 583 583.341, 583 582.535 C 583 581.729, 581.660 579.544, 580.023 577.679 C 578.385 575.814, 577.373 573.926, 577.773 573.484 C 578.173 573.041, 577.934 573.005, 577.243 573.403 C 576.509 573.825, 575.737 573.478, 575.388 572.569 C 575.059 571.712, 574.388 571.260, 573.895 571.565 C 573.403 571.869, 573 571.656, 573 571.090 C 573 570.525, 572.325 570.322, 571.500 570.638 C 570.675 570.955, 570 570.686, 570 570.040 C 570 569.320, 569.225 569.111, 568 569.500 C 566.900 569.849, 566 569.767, 566.001 569.317 C 566.001 568.868, 562.177 568.500, 557.503 568.500 C 552.829 568.500, 549.003 568.766, 549.002 569.092 C 548.999 569.856, 540.813 572.447, 539.500 572.099 C 538.950 571.953, 538.797 572.130, 539.160 572.494 C 539.524 572.857, 538.517 574.400, 536.923 575.923 C 535.329 577.446, 534.320 578.986, 534.679 579.346 C 535.039 579.706, 534.822 580, 534.198 580 C 533.574 580, 533.322 580.675, 533.638 581.500 C 533.955 582.325, 533.806 583, 533.308 583 C 532.809 583, 532.565 584.688, 532.765 586.750 C 533.040 589.585, 532.873 590.134, 532.080 589 C 531.240 587.799, 531.028 588.060, 531.015 590.309 C 531.006 591.930, 531.423 592.857, 532 592.500 C 532.603 592.128, 533 593.462, 533 595.858 C 533 598.044, 532.547 599.984, 531.993 600.169 C 531.346 600.385, 531.430 601.680, 532.230 603.797 C 533.183 606.322, 533.197 607.261, 532.289 607.821 C 531.537 608.286, 531.430 609.078, 531.996 609.993 C 532.553 610.894, 532.439 611.974, 531.693 612.879 C 530.765 614.004, 530.778 614.419, 531.750 614.746 C 533.330 615.278, 533.538 632, 531.965 632 C 531.268 632, 531.253 632.604, 531.918 633.847 C 532.604 635.129, 532.539 636.084, 531.703 636.972 C 530.765 637.969, 530.775 638.351, 531.750 638.708 C 533.130 639.214, 533.538 648, 532.181 648 C 531.731 648, 531.394 654.032, 531.433 661.405 C 531.473 669.179, 531.122 674.576, 530.597 674.251 C 530.099 673.943, 530.006 674.201, 530.392 674.825 C 530.777 675.448, 530.567 676.980, 529.924 678.229 C 528.291 681.403, 523.844 686.022, 522.952 685.470 C 522.544 685.218, 521.934 685.731, 521.596 686.609 C 521.247 687.521, 520.342 687.961, 519.492 687.635 C 518.671 687.320, 518 687.547, 518 688.138 C 518 688.730, 517.325 688.955, 516.500 688.638 C 515.675 688.322, 515 688.499, 515 689.031 C 515 689.564, 511.850 690, 508 690 C 504.150 690, 500.999 689.663, 500.998 689.250 C 500.996 688.837, 499.662 688.453, 498.033 688.395 C 495.221 688.296, 487.328 683.339, 488.351 682.316 C 488.616 682.050, 487.936 680.936, 486.839 679.839 C 485.743 678.743, 485.091 677.205, 485.391 676.423 C 485.692 675.640, 485.466 675, 484.889 675 C 484.245 675, 484.095 673.844, 484.500 672 C 484.921 670.085, 484.761 669, 484.059 669 C 483.271 669, 483.036 656.672, 483.229 625.628 C 483.404 597.700, 483.144 581.884, 482.500 581.212 C 481.950 580.638, 480.410 578.352, 479.079 576.131 C 477.747 573.911, 476.281 572.326, 475.822 572.610 C 475.362 572.894, 474.727 572.452, 474.410 571.627 C 474.094 570.801, 473.197 570.371, 472.417 570.670 C 471.638 570.969, 471 570.730, 471 570.138 C 471 569.547, 470.325 569.322, 469.500 569.638 C 468.675 569.955, 468 569.828, 468 569.357 C 468 568.886, 464.175 568.500, 459.500 568.500 C 454.825 568.500, 451 568.890, 451 569.367 M 626.743 569.395 C 627.048 569.887, 626.105 570.062, 624.649 569.784 C 623.192 569.505, 622 569.713, 622 570.246 C 622 570.778, 621.325 570.955, 620.500 570.638 C 619.675 570.322, 619 570.525, 619 571.090 C 619 571.656, 618.550 571.840, 618 571.500 C 617.450 571.160, 617 571.385, 617 572 C 617 572.615, 616.480 572.797, 615.845 572.405 C 615.175 571.990, 614.961 572.128, 615.334 572.732 C 615.989 573.791, 614.317 575.707, 612.500 575.981 C 611.950 576.063, 611.634 576.783, 611.797 577.579 C 611.960 578.375, 611.426 579.283, 610.610 579.596 C 609.794 579.909, 609.371 580.803, 609.670 581.583 C 609.969 582.362, 609.828 583, 609.357 583 C 608.886 583, 608.500 614.232, 608.500 652.405 C 608.500 694.393, 608.863 721.585, 609.420 721.241 C 609.926 720.928, 610.053 721.421, 609.701 722.336 C 609.350 723.251, 609.525 724, 610.090 724 C 610.656 724, 610.833 724.461, 610.485 725.025 C 610.136 725.588, 610.244 725.926, 610.723 725.775 C 611.975 725.380, 618.019 730.648, 617.225 731.442 C 616.860 731.807, 617.335 731.809, 618.280 731.446 C 619.226 731.083, 620 731.206, 620 731.720 C 620 732.233, 621.350 732.455, 623 732.213 C 624.888 731.936, 626 732.211, 626 732.954 C 626 734.339, 640.147 734.231, 641.065 732.839 C 641.375 732.367, 643.510 731.873, 645.809 731.741 C 648.109 731.608, 649.992 731.235, 649.995 730.911 C 649.998 730.586, 651.101 729.819, 652.447 729.206 C 653.793 728.593, 655.706 726.853, 656.697 725.340 C 658.379 722.775, 658.534 717.853, 659 652.295 C 659.275 613.632, 659.193 582, 658.817 582 C 658.095 582, 656.488 577.956, 656.770 576.846 C 656.861 576.486, 656.189 575.586, 655.276 574.846 C 653.876 573.711, 653.747 573.717, 654.451 574.885 C 654.910 575.647, 653.871 575.225, 652.143 573.947 C 650.414 572.669, 649 571.273, 649 570.843 C 649 570.414, 648.251 570.350, 647.336 570.701 C 646.283 571.105, 645.916 570.944, 646.337 570.263 C 646.761 569.578, 646.275 569.377, 645.001 569.710 C 643.901 569.998, 642.999 569.843, 642.998 569.367 C 642.997 568.890, 639.214 568.500, 634.592 568.500 C 629.901 568.500, 626.433 568.895, 626.743 569.395 M 804.864 595.469 C 804.589 595.744, 779.697 595.991, 749.548 596.017 C 719.399 596.043, 694.962 596.295, 695.244 596.577 C 695.525 596.858, 694.039 598.822, 691.941 600.941 C 689.843 603.060, 688.368 605.035, 688.664 605.330 C 688.959 605.625, 688.830 606.459, 688.378 607.183 C 687.297 608.915, 687.258 620, 688.333 620 C 688.792 620, 688.981 620.558, 688.753 621.241 C 688.525 621.924, 688.942 623.085, 689.679 623.822 C 690.416 624.558, 690.720 625.644, 690.355 626.235 C 689.990 626.826, 690.098 627.086, 690.595 626.813 C 691.509 626.313, 695.153 629.514, 694.460 630.207 C 694.254 630.413, 695.072 630.655, 696.278 630.746 C 697.484 630.837, 698.590 631.269, 698.735 631.706 C 698.881 632.143, 710.700 632.402, 725 632.282 C 739.300 632.163, 751 632.337, 751 632.669 C 751 633.283, 739.312 646.842, 735.630 650.500 L 733.617 652.500 735.058 650.500 C 736.387 648.657, 736.364 648.607, 734.761 649.863 C 733.805 650.613, 733.241 651.580, 733.508 652.013 C 733.775 652.445, 732.404 654.194, 730.462 655.899 C 728.520 657.605, 727.205 659, 727.541 659 C 727.877 659, 725.360 662.141, 721.948 665.980 C 718.536 669.819, 715.341 672.711, 714.847 672.406 C 714.354 672.101, 714.074 672.240, 714.225 672.715 C 714.376 673.190, 712.516 675.811, 710.092 678.539 C 707.667 681.268, 706.317 682.600, 707.092 681.500 C 708.386 679.661, 708.360 679.610, 706.761 680.863 C 705.805 681.613, 705.244 682.586, 705.516 683.026 C 705.788 683.466, 703.420 686.182, 700.255 689.062 C 697.090 691.943, 695.400 693.670, 696.500 692.900 C 697.600 692.130, 696.925 693.339, 695 695.586 C 693.075 697.834, 691.093 699.452, 690.595 699.182 C 690.098 698.912, 690.002 699.194, 690.382 699.809 C 690.762 700.424, 690.241 701.759, 689.224 702.776 C 688.207 703.793, 687.553 705.159, 687.771 705.813 C 687.989 706.466, 687.792 707, 687.333 707 C 686.875 707, 686.500 709.925, 686.500 713.500 C 686.500 717.075, 686.837 720, 687.250 720 C 687.663 720, 688 720.935, 688 722.077 C 688 723.907, 691.031 727.483, 695.139 730.500 C 696.898 731.792, 806.047 731.884, 805.248 730.592 C 804.939 730.092, 805.699 729.949, 806.943 730.275 C 808.183 730.599, 808.983 730.650, 808.721 730.387 C 808.458 730.125, 809.539 728.615, 811.122 727.032 C 812.705 725.449, 814 723.418, 814 722.518 C 814 721.618, 814.337 721.091, 814.750 721.345 C 815.163 721.600, 815.500 717.845, 815.500 713 C 815.500 707.980, 815.110 704.432, 814.592 704.752 C 814.093 705.060, 813.935 704.358, 814.240 703.191 C 814.545 702.023, 814.472 701.165, 814.077 701.284 C 813.682 701.403, 812.193 700.150, 810.767 698.500 L 808.176 695.500 778.050 695.183 L 747.924 694.866 754.212 688.770 C 757.670 685.417, 759.600 683.259, 758.500 683.973 C 757.400 684.688, 760.249 681.562, 764.831 677.027 C 769.413 672.492, 772.563 669.128, 771.831 669.552 C 771.099 669.976, 771.578 669.139, 772.895 667.692 C 774.213 666.245, 775.686 665.306, 776.170 665.605 C 776.654 665.904, 776.926 665.553, 776.775 664.824 C 776.624 664.096, 777.096 663.624, 777.824 663.775 C 778.553 663.926, 778.926 663.690, 778.654 663.250 C 778.382 662.810, 781.162 659.280, 784.830 655.406 C 788.499 651.531, 790.375 649.743, 789 651.431 L 786.500 654.500 789.703 651.608 C 791.464 650.018, 792.815 648.443, 792.704 648.108 C 792.364 647.085, 799.236 639.028, 800.030 639.519 C 800.439 639.771, 801.329 639.308, 802.009 638.489 C 802.689 637.670, 802.881 637, 802.435 637 C 801.990 637, 802.904 635.666, 804.466 634.036 C 806.028 632.405, 807.698 631.314, 808.178 631.610 C 808.657 631.906, 808.943 631.778, 808.812 631.324 C 808.389 629.854, 811.071 625.926, 812.075 626.546 C 812.611 626.878, 812.965 626.778, 812.861 626.324 C 812.532 624.891, 814.185 619.996, 814.857 620.411 C 815.211 620.630, 815.500 617.295, 815.500 613 C 815.500 608.705, 815.215 605.367, 814.866 605.583 C 814.517 605.798, 813.661 604.595, 812.963 602.910 C 812.264 601.224, 810.525 599.103, 809.097 598.196 C 807.668 597.288, 806.244 596.192, 805.932 595.758 C 805.619 595.325, 805.139 595.195, 804.864 595.469" stroke="none" fill="#f9d388" fill-rule="evenodd"/></svg>