<svg xmlns="http://www.w3.org/2000/svg" width="1024" height="1024"><path fill="#f9d388" fill-rule="evenodd" d="M255 270.683c-19.359 3.177-29.06 25.08-17.129 38.673 2.346 2.674 8.235 5.473 19.493 9.265 5.425 1.828 10.488 3.841 11.25 4.474 2.144 1.779 1.643 5.739-1.069 8.45-2.048 2.049-3.413 2.451-8.25 2.433-8.158-.031-19.373-5.365-17.579-8.362 1.081-1.806-2.821 1.569-6.663 5.763-5.278 5.762-5.501 7.064-1.753 10.234 13.288 11.24 38.138 11.506 48.085.514 1.035-1.144 2.342-1.796 2.903-1.449.562.347.751.194.421-.34-.33-.533.031-2.74.802-4.904 1.679-4.713 1.902-14.211.425-18.119-2.53-6.698-8.283-10.505-22.298-14.758-8.701-2.641-13.638-5.863-13.638-8.901 0-2.664 3.476-5.749 7.5-6.657 5.647-1.273 17.42 1.704 15.976 4.04-.319.516.022.707.757.425.736-.282 2.334.416 3.552 1.55 1.452 1.353 2.215 1.611 2.215.748 0-.724 1.795-3.705 3.989-6.625 3.503-4.662 3.843-5.573 2.786-7.473-.662-1.19-1.22-2.464-1.24-2.831-.019-.366-.445-1.041-.945-1.5-.538-.492-.583-.268-.111.547.547.943.36 1.233-.59.916-.764-.254-1.389-.95-1.389-1.546s-.41-1.458-.91-1.917c-.54-.494-.575-.255-.086.587.644 1.11.407 1.24-1.09.597-9.606-4.128-16.91-5.23-25.414-3.834m70.384.665c-10.657 2.719-19.341 10.073-24.241 20.527-2.44 5.206-2.636 6.632-2.64 19.125-.004 15.595 1.212 19.481 8.6 27.496 5.736 6.223 11.202 9.255 20.038 11.116 10.051 2.116 14.959 1.395 28.273-4.154 1.452-.605 1.717-.478 1.096.527q-.824 1.329.352.6c.644-.398.957-1.069.696-1.492-.261-.422 1.343-2.529 3.566-4.68 8.197-7.938 11.844-17.372 11.864-30.695.008-5.198-.661-9.779-2.016-13.8-1.115-3.311-1.72-6.516-1.345-7.123.386-.625.228-.824-.363-.458-1.376.85-4.55-4.04-3.645-5.615.386-.672.34-.895-.103-.495-.442.4-2.405-.679-4.363-2.397-8.929-7.841-24.144-11.448-35.769-8.482m120.034.569c-.23.229-.418 3.941-.418 8.25V288h20v61h17.588l-.044-30.5-.044-30.5 10 .191 10 .192-9.5.637-9.5.638 9.333-.079 9.334-.079.166-9 .167-9h-28.332c-15.583 0-28.52.188-28.75.417M509.114 273c.454.825 2.001 6 3.439 11.5a5335 5335 0 0 0 12.792 48l4.338 16 8.539.287 8.54.287.55-2.787c.302-1.533 3.138-12.699 6.302-24.814l5.753-22.026 5.769 22.841c3.174 12.562 6.046 23.712 6.384 24.776.544 1.712 1.586 1.936 9.009 1.936h8.394l1.089-4.25c.6-2.337 3.146-11.675 5.658-20.75s5.018-18.181 5.568-20.236 1.283-3.564 1.63-3.353c.348.211.709-1.258.803-3.264s1.557-8.09 3.25-13.52S610 273.359 610 272.877s-3.952-.877-8.782-.877h-8.782l-3.704 15.25c-2.038 8.387-4.651 19.413-5.808 24.5s-2.513 9.25-3.014 9.25-.91-.603-.91-1.34c0-1.781-10.757-43.584-11.892-46.214-.799-1.852-1.566-2.013-7.747-1.634-3.774.231-6.942.486-7.041.568s-2.931 10.922-6.292 24.092-6.266 24.1-6.456 24.289c-.318.319-4.161-15.317-9.571-38.947l-2.218-9.686-9.747-.314c-8.423-.271-9.635-.11-8.922 1.186m131.165-1.255-9.222.329-1.02 3.713c-.561 2.042-6.146 19.367-12.411 38.5l-11.39 34.787 8.632-.287 8.632-.287 2.5-7.803 2.5-7.803 12.971.303 12.97.303 1.848 4.983c1.017 2.74 1.988 6.565 2.158 8.5.271 3.085.662 3.539 3.181 3.694l2.872.177-3-.809c-2.168-.584-.434-.841 6.25-.927 5.087-.065 9.25-.37 9.25-.678s-4.067-12.796-9.037-27.75-10.62-32.252-12.555-38.44c-2.083-6.659-4.007-11.165-4.714-11.042-.657.114-5.344.355-10.415.537m141.471.004-21.75.29V349h48v-16h-31v-16h24v-15h-24v-14h14.607c12.909 0 14.536-.184 14-1.582-.334-.87-.607-4.695-.607-8.5s-.337-6.815-.75-6.689-10.538.36-22.5.52M388 310.5V349h18v-32h25v-15l-12.75.002-12.75.003.332-7.003.332-7.002H436v-16h-48zm300-.084V349h17v-27h9.534l6.728 13.5 6.729 13.5h9.504c5.97 0 9.505-.39 9.505-1.05 0-.577-.693-2.39-1.541-4.029-.847-1.639-1.264-3.428-.926-3.975.339-.548.02-.872-.709-.721-.796.166-1.294-.601-1.25-1.925.041-1.21-.281-1.981-.714-1.713-.434.268-1.988-1.892-3.453-4.8s-3.581-6.588-4.703-8.177c-1.981-2.807-1.986-2.931-.181-4.25 2.272-1.662 3.851-1.774 2.882-.205-.456.737-.273.882.507.399.672-.415.976-.999.677-1.298s.784-2.056 2.407-3.904c7.981-9.09 6.998-26.712-1.94-34.801-1.105-1-1.787-2.177-1.516-2.616.271-.438-.034-1.122-.678-1.52-.731-.452-.903-.291-.457.43.895 1.45.34 1.451-2.827.009-1.383-.631-2.334-1.439-2.113-1.797s-9.243-.78-21.031-.938L688 271.832zm-358.5-22.05c-2.2.709-3.907 1.757-3.794 2.329s-1.012 2.112-2.5 3.422L320.5 296.5l2.424-2.75c1.334-1.512 1.929-2.75 1.323-2.75-1.485 0-5.098 4.709-6.875 8.96-2.362 5.654-1.953 17.3.803 22.854 1.279 2.577 2.921 4.562 3.649 4.411s1.071.136.761.637c-.814 1.317 2.107 3.446 3.526 2.57.718-.445.937-.318.545.316-.758 1.225 4.395 3.255 8.243 3.246 1.431-.003 4.391-.502 6.578-1.109 4.766-1.323 12.03-8.121 11.144-10.429-.329-.858-.174-1.298.344-.978 1.556.962 3.293-7.586 2.756-13.566-.744-8.281-4.869-15.357-10.734-18.41-3.918-2.04-11.057-2.563-15.487-1.136M705 297.5v9.5h7.453c8.702 0 11.978-1.211 13.552-5.011 1.988-4.801.911-9.146-2.903-11.707-2.771-1.861-4.754-2.282-10.75-2.282H705zm-291.794-7.759c3.689.191 9.989.193 14 .002 4.012-.19.994-.347-6.706-.348s-10.982.154-7.294.346m37.074-.005c2.629.207 6.679.204 9-.005 2.321-.21.17-.379-4.78-.376s-6.849.175-4.22.381m258.47-.013c1.788.222 4.712.222 6.5 0 1.788-.221.325-.403-3.25-.403s-5.038.182-3.25.403m75.456.018c3.689.191 9.989.193 14 .002 4.012-.19.994-.347-6.706-.348s-10.982.154-7.294.346m-143.445 2.339c-.491 2.215-5.474 19.342-7.177 24.67-.708 2.215-.585 2.25 7.928 2.25h8.647l-.612-2.75c-.337-1.512-2.33-8.114-4.43-14.67-2.836-8.852-3.957-11.297-4.356-9.5M802.32 310c0 3.575.182 5.038.403 3.25s.222-4.712 0-6.5c-.221-1.788-.403-.325-.403 3.25m-17.033 8.74c3.182.199 8.132.197 11-.004 2.867-.201.263-.364-5.787-.362s-8.396.167-5.213.366m2.009 13.004c4.287.188 11.037.187 15-.002 3.962-.19.454-.343-7.796-.342s-11.492.156-7.204.344M809.32 341c0 3.575.182 5.038.403 3.25s.222-4.712 0-6.5c-.221-1.788-.403-.325-.403 3.25m-123.01.5c.005 3.3.192 4.529.415 2.732s.218-4.497-.01-6c-.229-1.503-.411-.032-.405 3.268m-152.542 9.225c1.797.222 4.497.218 6-.01 1.503-.229.032-.411-3.268-.405s-4.529.192-2.732.415m42 0c1.797.222 4.497.218 6-.01 1.503-.229.032-.411-3.268-.405s-4.529.192-2.732.415m-248.034 43.299c-2.071.523-5.574 1.874-7.784 3.001-2.21 1.128-4.523 1.739-5.139 1.358-.638-.394-.843-.244-.477.349.771 1.247-1.866 3.675-3.137 2.89-.49-.303-2.197.853-3.794 2.568s-2.282 2.762-1.523 2.325 1.192-.393.963.096-2.051 4.176-4.049 8.193c-8.243 16.572-5.196 38.12 6.978 49.339 2.6 2.396 4.727 4.657 4.728 5.024 0 .366.41 1.041.91 1.5.529.484.609.309.191-.417-.918-1.596-1.077-1.621 5.399.845 4.209 1.603 7.74 2.09 15.04 2.075 10.775-.021 17.032-1.862 25.158-7.4l4.798-3.27.002-16.301.002-16.302-14.502.302c-9.012.187-14.66-.078-14.921-.699-.23-.55-.455-.464-.498.191s.371 1.469.921 1.809 1 3.066 1 6.059V443h12v5.386c0 5.192-.129 5.447-3.566 7.078-5.509 2.615-19.582 2.202-17.897-.525.312-.504-.05-.68-.803-.39-1.519.583-6.734-3.091-6.734-4.744 0-.61.733-.475 1.75.323 1.579 1.238 1.618 1.204.404-.346-.74-.945-1.825-1.62-2.411-1.5-1.993.408-3.886-8.469-3.483-16.331.284-5.561 1.008-8.655 2.747-11.75 1.299-2.311 2.755-4.201 3.236-4.201s.551.563.156 1.25c-.418.726-.338.901.191.417.5-.459.91-1.359.91-2 0-2.091 8.636-5.667 13.683-5.667 6.062 0 20.732 6.585 19.061 8.556-.409.483.044.275 1.006-.461 1.862-1.426 2.43-2.633.75-1.595-2.34 1.446-.694-1.236 3.184-5.187 4.951-5.045 5.391-7.479 1.905-10.547l-2.575-2.266 1.898 2.25c1.044 1.238 1.457 2.25.917 2.25-1.227 0-5.513-4.483-4.886-5.11.254-.254-.304-.513-1.241-.577-.936-.064-3.727-.882-6.202-1.819-5.29-2.003-18.892-2.827-24.266-1.47m503.496.46c-14.436 4.068-23.588 13.96-26.656 28.809-1.96 9.491-1.963 14.43-.016 22.693 3.581 15.195 14.135 24.85 29.541 27.028 11.202 1.583 25.065-2.074 32.923-8.686l2.978-2.506V430h-27v13h11.1l-.3 5.75c-.271 5.194-.513 5.743-2.5 5.676-1.21-.041-1.98.284-1.709.721.81 1.311-4.283 2.116-10.53 1.664-12.852-.93-19.777-12.374-17.013-28.113 2.043-11.632 8.844-17.79 20.432-18.503 5.127-.315 6.836.059 11.52 2.52 3.025 1.589 5.5 3.504 5.5 4.254s.574 1.481 1.275 1.623c.725.147.802.029.18-.274-1.093-.53 2.932-3.999 4.177-3.599.348.111.573-.556.5-1.484s.393-1.698 1.035-1.711 1.541-.434 2-.934c.484-.529.309-.609-.417-.191-1.762 1.013-1.553-.406.371-2.533 1.053-1.163 1.346-2.418.837-3.579-.432-.983-.824-2.102-.872-2.487-.047-.385-.739-1.285-1.538-2-1.253-1.122-1.27-1.061-.127.45.728.962.889 1.75.356 1.75-1.2 0-4.449-3.495-3.827-4.117.25-.25-.311-.506-1.248-.57-.936-.064-3.675-.854-6.087-1.756-6.31-2.36-18.458-2.884-24.885-1.073M159 433.5V472h47v-16h-30v-16h24v-16h-24v-13h30v-16h-47zm61 .04v38.541l8.25-.291 8.25-.29v-18.494c0-10.172-.242-21.084-.537-24.25s-.295-5.753 0-5.75c1.114.013 4.017 6.217 3.387 7.237-.366.592-.191.777.394.415 1.315-.813 7.66 8.879 6.763 10.331-.361.583-.116.937.544.786.659-.151 1.426.35 1.704 1.114.338.932.082 1.128-.78.596-.848-.525-1.038-.397-.56.377.398.644 1.139.913 1.648.599 1.191-.736 14.216 19.279 13.402 20.595-.337.547-.074.87.586.719s1.426.35 1.704 1.114c.347.956.074 1.14-.875.59-.815-.472-1.039-.427-.547.111.459.5 1.359.911 2 .913.642.001 1.17.825 1.174 1.83.007 1.651 1.002 1.827 10.337 1.827 5.681 0 10.628-.333 10.993-.74.365-.408.101-.417-.587-.021-.991.57-1.25-7.276-1.25-37.84V395h-16.963l-.269 23.205-.268 23.205-4.337-6.659c-2.52-3.867-4.027-7.162-3.596-7.859.462-.747.319-.94-.377-.509-1.4.865-8.661-9.812-7.714-11.343.37-.599.133-.966-.527-.815-.659.151-1.426-.35-1.704-1.114-.347-.956-.074-1.14.875-.59.815.472 1.039.427.547-.111-.459-.5-1.321-.91-1.917-.91s-1.292-.625-1.546-1.389c-.317-.95-.027-1.137.916-.59.815.472 1.039.427.547-.111-.459-.5-1.321-.91-1.917-.91s-1.292-.625-1.546-1.389q-.463-1.39.821-.596c.848.525 1.038.397.56-.377-.398-.644-1.104-.935-1.569-.648-1.226.758-5.291-6.236-4.432-7.626.425-.688.294-.907-.316-.53-.573.354-1.597-.026-2.277-.845-.925-1.114-3.471-1.489-10.113-1.489H220zM267.425 416c0 11.825.144 16.663.321 10.75s.177-15.587 0-21.5-.321-1.075-.321 10.75M380 433.431v38.432l9.599.318c5.279.176 9.848-.088 10.154-.586.306-.497.036-.583-.598-.19-.866.534-1.155-8.954-1.155-37.846V395h-18zm33 .069V472h17l.04-24.75c.038-23.316.133-24.576 1.646-21.75.883 1.65 2.44 4.073 3.46 5.385 2.126 2.734 2.442 4.571.604 3.514-.726-.418-.901-.338-.417.191.459.5 1.359.921 2 .934.642.013 1.105.796 1.03 1.739s.213 1.499.641 1.235c1.089-.674 4.215 4.339 3.463 5.555-.339.548-.076.873.584.722s1.426.35 1.704 1.114c.338.932.082 1.128-.78.596-.848-.525-1.038-.397-.56.377.398.644 1.093.942 1.545.663s1.545.597 2.431 1.948c1.897 2.896 2.056 3.921.454 2.932-.721-.446-.882-.274-.43.457.398.644 1.089.944 1.537.668 1.256-.777 11.349 15.175 10.485 16.572-.457.739-.325.947.339.536.597-.369 1.368-.213 1.714.346.35.565 4.591 1.016 9.569 1.016H480v-77h-15.964l-.268 24.013-.268 24.014-4.25-6.269c-4.287-6.323-5.216-8.473-3.095-7.163.721.446.882.274.43-.457-.398-.644-1.122-.924-1.61-.622-1.274.787-4.291-4.196-3.407-5.627.447-.722.318-.936-.325-.539-.602.372-2.41-1.526-4.155-4.361-3.339-5.427-3.724-6.5-1.933-5.394.721.446.882.274.43-.457-.398-.644-1.087-.946-1.532-.671-1.184.732-6.251-7.338-5.436-8.657.413-.667.241-.84-.425-.429-.652.404-2.226-.987-3.787-3.345L431.734 395H413zm81 0V472h49v-16h-32l-.002-8.25-.002-8.25 12.002.309 12.002.309V424h-24v-13h32v-16h-49zm63-.034v38.466l24.25.284 24.25.284-.323-8.25-.324-8.25H574l-.002-8.25-.002-8.25 10.156.32c15.209.479 14.994.597 14.641-8.1l-.293-7.22-12.25-.281-12.25-.281V411h31v-16h-48zm63 .034V472h17v-26.754l4.75.489c5.056.521 7.649 2.597 6.891 5.516-.279 1.076-.039 1.495.622 1.086.688-.425.839-.045.418 1.051-.379.99-.253 1.465.3 1.124.527-.326 3.002 3.476 5.499 8.448l4.54 9.04h8.868c6.805 0 9.168-.362 10.159-1.556 1.068-1.287 1.046-1.504-.128-1.25-.903.195-1.392-.493-1.345-1.894.041-1.21-.256-1.997-.659-1.747-.404.249-1.674-1.49-2.824-3.866-2.373-4.9-2.596-6.117-.936-5.092.721.446.882.274.43-.457-.398-.644-1.219-.864-1.824-.49-.715.442-.87.079-.442-1.036.391-1.021.257-1.468-.332-1.104-1.217.752-3.258-4.261-2.34-5.746.383-.619.193-.781-.45-.384-.65.402-1.808-.658-2.787-2.551-1.382-2.673-1.433-3.314-.292-3.67 2.807-.876 9.796-9.187 10.817-12.863 2.185-7.866.605-18.829-3.34-23.189-2.135-2.36-2.033-3.686.155-2.008.962.738.659.119-.674-1.377-2.428-2.724-3.736-3.597-2.576-1.72.925 1.496-1.084 1.206-2.369-.342-.612-.738-.78-1.71-.372-2.16.407-.45.255-.542-.338-.205-.594.338-3.253-.04-5.909-.839-3.444-1.037-9.948-1.454-22.671-1.454H620zm75 0V472h17v-77h-17zm32.238-.25.262 38.25h15.64l-.083-24c-.071-20.654.105-23.652 1.264-21.5 2.005 3.723 9.495 15.805 13.321 21.487 3.464 5.143 4.215 7.161 2.203 5.918-.721-.446-.882-.274-.43.457.398.644 1.12.926 1.604.626 1.206-.745 3.243 3.279 2.373 4.687-.423.684-.255.859.421.44.68-.419 2.812 1.879 5.405 5.825l4.282 6.518 9.25.021L792 472v-77h-15.964l-.268 24.25-.268 24.25-5.28-7.45c-2.904-4.097-5.047-8.058-4.762-8.802s.094-1.089-.425-.768c-1.227.758-9.146-11.576-8.528-13.282.26-.716.044-1.037-.479-.714-1.34.828-6.386-7.093-5.466-8.581.477-.772.329-.953-.407-.498-.714.442-2.205-1.014-3.904-3.814l-2.749-4.528-8.262-.031-8.262-.032zm-315.784.75c0 21.175.133 29.838.295 19.25.162-10.587.162-27.912 0-38.5-.162-10.587-.295-1.925-.295 19.25m144 0c0 21.175.133 29.838.295 19.25.162-10.587.162-27.912 0-38.5-.162-10.587-.295-1.925-.295 19.25m-93.144-31.5c.005 3.3.192 4.529.415 2.732s.218-4.497-.01-6c-.229-1.503-.411-.032-.405 3.268m19.082 8.5c0 7.425.157 10.462.35 6.75s.192-9.788 0-13.5c-.193-3.712-.35-.675-.35 6.75m10.968-2c0 5.225.169 7.363.375 4.75s.206-6.887 0-9.5-.375-.475-.375 4.75m-205.005 5.5c-.003 4.95.166 7.101.376 4.78.209-2.321.212-6.371.005-9-.206-2.629-.378-.73-.381 4.22m349.643 6.25-.003 9.75 7.513-.329c4.131-.181 7.282-.702 7.001-1.157-.282-.455.328-.608 1.353-.34 2.485.65 6.138-4.037 6.138-7.875 0-6.757-4.802-9.799-15.468-9.799H637zm-459.813-3 .185 5.75.366-5.222.367-5.222 13.698-.309 13.699-.308-14.25-.22L177 412zm342.565-5.007c3.987.189 10.513.189 14.5 0 3.987-.19.725-.346-7.25-.346s-11.237.156-7.25.346m55.248.007c-.001.413 4.386.631 9.75.485 18.068-.492 19.839-.864 5.002-1.05-8.112-.102-14.751.152-14.752.565m65.77-.025c1.797.222 4.497.218 6-.01 1.503-.229.032-.411-3.268-.405s-4.529.192-2.732.415M492.436 444.5c0 14.3.141 20.011.312 12.691s.17-19.02-.001-26-.312-.991-.311 13.309m92.292-21.778c1.775.221 4.925.224 7 .008 2.074-.217.622-.397-3.228-.402-3.85-.004-5.548.173-3.772.394m-122.893 8.78c-.184 3.576.002 6.501.415 6.5s.75-2.927.75-6.502-.187-6.5-.415-6.5-.565 2.926-.75 6.502M431 433c0 2.933.184 5.146.409 4.917.762-.776 1.015-8.827.3-9.541-.39-.39-.709 1.691-.709 4.624m-248.211 8.741c3.459.196 8.859.195 12-.003s.311-.358-6.289-.356-9.17.164-5.711.359m335.461-.002c3.163.198 8.337.198 11.5 0s.575-.361-5.75-.361-8.913.163-5.75.361m57.162.63c-.289.753-.388 3.791-.219 6.75l.307 5.381 13 .044 13 .043-12.75-.323-12.75-.322v-11.879l11.75-.316 11.75-.317-11.781-.215c-9.2-.168-11.897.085-12.307 1.154M177.32 449c0 3.575.182 5.038.403 3.25s.222-4.712 0-6.5c-.221-1.788-.403-.325-.403 3.25m11.469 5.741c3.459.196 8.859.195 12-.003s.311-.358-6.289-.356-9.17.164-5.711.359m332.008.004c4.564.185 11.764.184 16-.003s.503-.338-8.297-.337-12.266.154-7.703.34m-349.994 19.001c5.667.179 14.667.178 20-.001 5.333-.18.697-.326-10.303-.325s-15.364.148-9.697.326m247.973-.013c2.352.212 5.952.209 8-.006s.124-.388-4.276-.384c-4.4.003-6.076.179-3.724.39m48.504.003c2.629.207 6.679.204 9-.005 2.321-.21.17-.379-4.78-.376s-6.849.175-4.22.381m39.97.011c6.462.174 17.038.174 23.5 0s1.175-.317-11.75-.317-18.212.143-11.75.317m62.054 0c5.943.177 15.393.176 21-.002 5.608-.178.746-.323-10.804-.322s-16.138.147-10.196.324m97.946-.019c2.063.216 5.438.216 7.5 0 2.063-.215.375-.392-3.75-.392s-5.812.177-3.75.392m32.5.004c2.337.211 6.163.211 8.5 0 2.337-.21.425-.383-4.25-.383s-6.587.173-4.25.383m32 0c2.337.211 6.163.211 8.5 0 2.337-.21.425-.383-4.25-.383s-6.587.173-4.25.383m48 0c2.337.211 6.163.211 8.5 0 2.337-.21.425-.383-4.25-.383s-6.587.173-4.25.383m-152.43 30.559c-.269.435-1.35.517-2.404.182-1.146-.363-1.916-.136-1.916.567 0 .65-.692.908-1.552.578-1.014-.389-1.304-.193-.836.563.495.801.134.936-1.167.436-1.036-.397-1.575-.414-1.198-.037s-1.099 1.979-3.281 3.559c-2.181 1.581-3.966 3.347-3.966 3.926s-.52.732-1.155.34c-.684-.423-.884-.277-.49.36.365.591.006 1.731-.798 2.535s-1.183 1.74-.843 2.081.159.619-.404.619c-.639 0-1.024 4.312-1.024 11.471 0 7.291.359 11.248.987 10.861.542-.336.787-.013.544.716-.243.73.39 2.159 1.407 3.176s1.535 2.395 1.152 3.062c-.383.668-.328.88.122.473 1.119-1.015 3.637 1.213 2.836 2.509-.36.584-.163.744.45.365.601-.371 1.499.05 1.994.936.496.885 1.086 1.533 1.312 1.439 1.042-.436 5.843 1.291 5.433 1.954-.254.412.716.524 2.156.249 1.44-.276 2.369-.098 2.065.394-.308.498 2.955.895 7.351.895 4.348 0 7.905-.39 7.905-.867 0-.476.9-.631 2-.343 1.1.287 2 .169 2-.262 0-.92 6.116-3.626 7.324-3.241.454.144.54-.199.191-.762-.348-.564-.173-1.025.39-1.025s2.092-1.573 3.398-3.495 2.575-3.293 2.821-3.047c.545.544.661-.368 1.619-12.709.416-5.363.378-9.876-.085-10.03s-.913-1.461-1-2.904-.572-2.367-1.078-2.055c-.509.314-.626-.198-.261-1.148.362-.944.326-1.566-.08-1.383-1.005.452-8.119-7.015-7.384-7.75.321-.322-.264-.259-1.3.138-1.301.5-1.662.365-1.167-.436.482-.78.156-.943-1-.5-1.096.421-1.476.27-1.051-.418.431-.697-.096-.877-1.492-.512-1.619.423-1.953.232-1.337-.763.605-.979.359-1.151-.934-.655-.965.371-2.24.374-2.833.007-1.541-.953-12.838-.994-13.421-.049m175.135 4.164c-3.237 3.236-3.099 6.054.468 9.622 3.723 3.723 6.458 3.695 10.256-.102 2.425-2.425 2.897-3.566 2.38-5.75-1.457-6.158-8.648-8.227-13.104-3.77m-506.453 2.871c-.001.454-1.915.733-4.252.62s-5.038.127-6 .532-2.425.477-3.25.16-1.5-.091-1.5.502c0 .649-.992.828-2.5.449-1.567-.393-2.5-.203-2.5.509 0 .643-.867.908-2.001.612-1.261-.33-1.758-.129-1.344.541.421.682-.117.861-1.499.5-1.186-.31-2.156-.108-2.156.45 0 .557-.675.754-1.5.437-.825-.316-1.5-.102-1.5.477 0 .578-.558.866-1.241.638s-1.866.211-2.629.974-2.005 1.151-2.759.862-1.371-.064-1.371.501c0 .566-.45.75-1 .41s-1-.172-1 .374c0 .966-4.295 2.812-4.707 2.023-.114-.218-.833.459-1.598 1.506-.907 1.24-1.88 1.619-2.793 1.089-.771-.447-1.061-.437-.644.022.852.939-4.218 4.629-5.377 3.913-.408-.253-1.068.067-1.466.711q-.722 1.169.68.43c.773-.408.293.162-1.067 1.267s-2.791 1.811-3.181 1.57-1.034.089-1.432.733c-.454.734-.29.903.437.454.638-.395-2.105 2.573-6.096 6.595s-7.605 7.167-8.031 6.989c-.426-.179-.654.046-.508.5.427 1.315-2.819 5.388-3.64 4.568-.409-.409-.635-.294-.502.256.44 1.815-1.263 4.501-2.43 3.834-.63-.36-.825-.3-.435.132.933 1.034-1.931 6.534-3.402 6.534-.628 0-.862.28-.52.622.585.584-3.827 10.294-5.169 11.378-.341.275-.664 1.063-.719 1.75-.306 3.826-.487 4.314-1.389 3.757-.566-.35-.734.051-.393.941.328.854.112 1.552-.48 1.552-.591 0-.816.675-.5 1.5.317.825.12 1.5-.437 1.5-.558 0-.778.9-.491 2s.063 2-.5 2-.769.97-.459 2.156c.346 1.322.172 1.914-.449 1.531-.621-.384-.83.33-.541 1.843.26 1.359.048 2.47-.471 2.47s-.745 1.35-.503 3 .04 3-.45 3c-.489 0-.718 1.8-.508 4s-.004 4.001-.474 4.003-.871 4.952-.891 11 .364 10.997.855 10.997c.49 0 .719 1.8.51 4-.21 2.2.019 4 .508 4 .49 0 .692 1.35.45 3s-.161 3 .18 3c.943 0 3.074 11.125 2.354 12.29-.388.627-.125.707.682.208.977-.604 1.168-.261.748 1.346-.31 1.186-.108 2.156.45 2.156.557 0 .754.675.437 1.5-.316.825-.091 1.5.5 1.5.592 0 .808.698.48 1.552-.327.854-.214 1.316.253 1.028 1.093-.676 4.278 7.37 3.448 8.712-.345.56-.141.716.454.348 1.035-.64 2.871 2.944 2.4 4.684-.122.454.315.492.972.086.822-.508.989-.203.536.978-.362.944-.279 1.482.184 1.195.874-.54 3.636 4.289 3.285 5.741-.11.454.214.569.72.256.848-.524 1.768.767 1.951 2.736.042.448 1.228 1.722 2.637 2.83s2.324 2.397 2.035 2.865.001 1.176.645 1.574c.791.489.911.268.371-.68-.681-1.196 3.823 3.692 8.315 9.023 1.056 1.254 1.17 1.268.562.072-.42-.825 1.073.075 3.317 2 7.813 6.703 9.297 7.844 9.329 7.174.017-.371.692.2 1.5 1.267.807 1.068 1.468 1.652 1.468 1.299 0-.806 15.386 6.402 15.815 7.408.173.407.96.492 1.75.189.789-.303 1.437-.165 1.439.306s1.682.945 3.732 1.052 3.87.622 4.044 1.144 1.194.719 2.268.438 1.952-.036 1.952.543c0 .655 1.386.829 3.655.461 2.087-.339 3.416-.204 3.097.313-.32.518 3.682.906 9.344.906 5.447 0 9.904.337 9.904.75s-.016.991-.036 1.286c-.019.294.66 1.231 1.509 2.08.85.85 1.29 1.959.977 2.465-.312.505-.113.919.443.919s2.404 2.025 4.107 4.5 2.867 4.5 2.588 4.5c-.28 0 2.576 2.897 6.346 6.438s6.566 6.729 6.211 7.084-.195.497.355.318c1.284-.421 8.5 4.029 8.5 5.242 0 .505.361.806.802.668 1.247-.388 11.198 4.482 11.198 5.48 0 .488.398.642.885.341.769-.475 3.156.079 9.115 2.118 5.073 1.736 22 1.693 22-.056 0-.476.9-.631 2-.343 1.1.287 2 .067 2-.491 0-.557.675-.754 1.5-.437.825.316 1.5.064 1.5-.56s.275-.86.612-.523 2.804-1.546 5.483-4.184c2.68-2.637 4.992-4.75 5.138-4.695.147.055.17-.072.052-.281s.302-1.335.934-2.5c1.202-2.216 2.729-17.619 1.748-17.619-.555 0-3.358-7.021-3.193-8 .203-1.211-3.255-4-4.96-4-1.032 0-2.094-.562-2.359-1.25s-1.935-1.353-3.711-1.479c-1.777-.126-3.375-.663-3.552-1.194-.176-.53-.946-.725-1.709-.432s-1.971.169-2.685-.276c-.714-.444-2.31-.676-3.548-.517s-2.25-.18-2.25-.755c0-.63-1.195-.808-3-.447-1.896.379-3 .19-3-.513 0-.612-.788-1.047-1.75-.967-4.105.344-8.326-.238-7.808-1.077.309-.498-.41-.653-1.597-.342-1.571.411-1.945.22-1.376-.701.584-.945.182-1.088-1.594-.565l-2.375.7 2.5-1.835c1.375-1.009 2.837-1.725 3.25-1.592s.75-.235.75-.817.45-.781 1-.441 1 .153 1-.415c0-1.035 5.567-4.364 6.446-3.855.258.148 1.148-.63 1.979-1.73s1.526-1.714 1.543-1.365c.018.349 1.677-.872 3.687-2.713s3.96-3.16 4.332-2.93c.784.484 9.868-8.499 10.103-9.992.297-1.878 3.643-5.434 4.438-4.716.436.394.504.21.151-.408s.463-2.317 1.814-3.774 2.448-2.976 2.438-3.376c-.035-1.392 4.204-8.226 5.102-8.226.497 0 .617-.749.266-1.664-.464-1.208-.276-1.44.686-.846.834.516 1.084.43.674-.232-.749-1.213 1.68-7.586 2.558-6.708.321.321.557-.009.525-.733-.15-3.452.331-4.89 1.413-4.222.722.447.882.274.428-.46-.631-1.022.263-5.244 2.147-10.135.317-.825.48-2.288.361-3.25s.233-1.75.783-1.75c.593 0 .759-1.49.407-3.655-.339-2.087-.204-3.415.313-3.095.527.326.906-6.257.906-15.748 0-9.069-.389-16.069-.875-15.769-.482.297-.685-1.096-.451-3.097.233-2 .012-3.636-.491-3.636-.504 0-.701-1.125-.438-2.5s.038-2.5-.5-2.5-.743-.9-.455-2c.287-1.1.067-2-.491-2-.557 0-.759-.661-.45-1.468.31-.807.103-1.753-.461-2.101-.563-.348-.783-1.263-.488-2.032s.145-1.399-.334-1.399c-1.124 0-3.212-5.954-2.495-7.115.301-.487.147-.885-.341-.885-.998 0-5.868-9.951-5.48-11.198.137-.441-.275-.802-.917-.802-.641 0-.873-.293-.515-.651s.008-1.146-.779-1.75c-.786-.605-1.566-1.719-1.734-2.478-.168-.758-1.53-2.758-3.028-4.443-1.498-1.686-2.547-3.242-2.331-3.458s-1.033-1.762-2.777-3.437c-1.743-1.674-2.269-2.437-1.169-1.695s-1.15-1.552-5-5.098-8.55-8.031-10.445-9.968-3.097-2.847-2.673-2.022-.197.396-1.38-.952c-1.182-1.349-2.892-2.561-3.799-2.694-.906-.133-2.111-.875-2.676-1.647-.565-.773-1.252-1.407-1.527-1.409-1.917-.016-4.927-1.607-4.463-2.359.313-.505-.203-.621-1.149-.258-1.157.444-1.483.281-1-.5.482-.78.156-.943-1-.5-1.256.483-1.497.304-.898-.666.505-.817.43-1.083-.198-.696-1.201.743-9.292-2.252-9.292-3.439 0-.45-.675-.558-1.5-.242s-1.5.092-1.5-.5c0-.591-.629-.834-1.399-.538-.769.295-1.67.098-2.001-.438s-1.572-.721-2.757-.411c-1.321.346-1.913.172-1.53-.449.384-.621-.33-.83-1.843-.541-1.399.267-2.47.002-2.47-.613 0-.597-.675-.826-1.5-.51-.825.317-2.288.23-3.25-.194-.962-.423-4.167-.651-7.121-.506-3.241.158-5.136-.118-4.778-.697.357-.577-1.791-.917-5.376-.851-3.284.061-5.972.481-5.973.936m409.171 15.943c-1.831.586-5.482 3.001-8.114 5.368-2.632 2.366-5.144 3.979-5.583 3.583-.438-.396-.479-.167-.09.51.389.676.011 3.279-.839 5.785-2.777 8.178-1.321 19.143 3.326 25.05 1.155 1.469 1.886 3.016 1.624 3.439s.281 1.383 1.206 2.133c1.423 1.154 1.553 1.151.85-.017-.578-.959-.408-1.226.558-.875.764.278 1.314.899 1.222 1.38-.091.481.809.969 2 1.084 1.192.114 4.915.501 8.274.859 5.003.534 6.971.27 10.878-1.458 5.348-2.366 5.868-2.49 5.079-1.213-.305.493-.27 2.968.077 5.5l.631 4.603h11.868l-.233-22.946c-.129-12.62-.508-22.857-.843-22.75-1.122.361-8.038-7.996-7.296-8.816.403-.445.217-.515-.412-.155-.628.359-3.048-.019-5.375-.84-4.808-1.696-13.871-1.804-18.808-.224M823.778 530c.778 8.517-.024 8 12.396 8 10.997 0 11.114.024 9.362 1.96-.976 1.078-2.283 1.866-2.905 1.75-.622-.115-1.003.4-.846 1.145.352 1.671-1.711 4.309-2.829 3.618-.45-.278-1.143.021-1.541.665-.452.731-.291.903.43.457.635-.392 1.155-.292 1.155.224 0 1.22-2.532 3.316-3.2 2.648-.283-.283-1.142.257-1.907 1.201-.922 1.135-.97 1.462-.143.965 2.082-1.251 1.417.368-1.838 4.478-1.698 2.144-3.568 3.602-4.154 3.239-.628-.388-.775-.186-.357.49.39.631-.44 2.656-1.846 4.499-1.492 1.957-2.555 4.662-2.555 6.505V575h43v-10h-12.5c-6.875 0-12.5-.262-12.5-.582 0-1.531 7.354-9.317 8.267-8.753.604.373.743.161.332-.505-.912-1.476 4.285-8.35 5.667-7.496.574.355.767.199.43-.347-.894-1.446 2.227-5.473 3.622-4.673.65.372.862.322.472-.11-.391-.433-.053-2.058.75-3.611s1.46-4.853 1.46-7.332v-4.509l-19.271-.291-19.271-.291zm-75.392 15.75c.591 20.384.808 23.248 1.711 22.69.765-.473 6.086 5.043 5.465 5.665-.59.59.924.787 11.539 1.506 7.514.508 9.129.312 12.784-1.552 2.301-1.174 4.558-1.903 5.016-1.62.457.282 1.679-.453 2.715-1.634 1.036-1.182 1.263-1.784.504-1.338-.953.56-1.223.382-.875-.578.278-.764.946-1.298 1.485-1.187.61.125 1.059-7.528 1.188-20.25l.207-20.452h-11.993l-.316 17.09c-.306 16.574-.387 17.149-2.677 19-3.288 2.66-7.706 2.434-10.684-.545-2.409-2.408-2.455-2.766-2.455-19V527h-14.159zM801 551v24h5.066c2.786 0 5.823.406 6.75.902 1.561.837 1.663-.912 1.401-24L813.933 527H801zm-24.615-11c0 6.875.16 9.688.355 6.25.196-3.437.196-9.062 0-12.5-.195-3.437-.355-.625-.355 6.25m23.045 11c0 12.925.143 18.212.317 11.75s.174-17.038 0-23.5-.317-1.175-.317 11.75m-89.548-12.25a5.8 5.8 0 0 0-.012 1.464c.058.393-.545.464-1.341.159-2.187-.84-5.521 5.372-5.525 10.295-.005 4.843.831 7.552 2.089 6.774.486-.3.588.226.226 1.17-.444 1.157-.281 1.483.5 1 .732-.452.959-.196.616.697-.801 2.087 5.897 4.997 9.621 4.179 1.629-.358 2.737-1.013 2.463-1.456-.273-.444.285-.744 1.242-.669.956.075 1.627-.425 1.489-1.113s.313-1.137 1-1c.713.143 1.218-.695 1.176-1.95-.041-1.21.297-1.971.75-1.691s.824-2.263.824-5.65c0-5.671-.269-6.428-3.4-9.559-2.761-2.761-4.171-3.4-7.5-3.4-2.255 0-4.153.337-4.218.75m29.527 21.75c-.001 9.35.149 13.31.334 8.799.185-4.51.186-12.16.002-17-.183-4.839-.335-1.149-.336 8.201m-440.882.456c-.325.526-1.252.703-2.059.393s-2.256-.221-3.218.198c-.962.418-2.587.655-3.609.525-1.105-.139-1.591.199-1.198.835.406.658.063.841-.891.475-.856-.329-1.552-.073-1.552.57 0 .641-.416.909-.925.594-1.254-.775-6.145 1.531-5.492 2.589.287.463-.129.593-.924.288-3.706-1.422-24.267 23.166-22.187 26.532.355.575.121 1.045-.52 1.045s-.907.675-.59 1.5c.316.825.091 1.5-.5 1.5-.592 0-.828.646-.525 1.435.303.79.101 1.586-.448 1.769s-1.087 2.01-1.194 4.06-.591 3.729-1.076 3.732c-.484.002-.625 1.579-.313 3.504.313 1.925.147 3.5-.369 3.5s-.93 4.153-.922 9.25c.01 5.994.338 8.74.932 7.802.596-.942.719.018.353 2.75-.31 2.309-.167 4.2.318 4.202.485.003.97 1.682 1.077 3.732s.645 3.877 1.194 4.06.751.979.448 1.769-.026 1.435.615 1.435.907.419.59.931c-.701 1.135 2.48 8.069 3.702 8.069.481 0 .631.394.333.875-1.125 1.82 9.997 15.506 11.731 14.435.55-.34.694-.122.319.485-.661 1.069 3.101 3.849 4.623 3.417.413-.116.75.226.75.762 0 1.12 4.567 3.661 7.508 4.177 1.096.192 2.622.946 3.391 1.677.77.73 2.233 1.109 3.251.843 1.122-.293 1.599-.074 1.209.557-.414.671.489.874 2.543.573 1.752-.257 3.418-.093 3.701.366.714 1.155 9.145 1.05 9.87-.123.325-.526 1.267-.697 2.094-.38 1.819.698 10.433-1.583 10.433-2.763 0-.461.64-.593 1.423-.292.782.3 2.282-.277 3.333-1.282s2.517-1.966 3.257-2.137c4-.921 17.564-14.448 16.391-16.346-.425-.686-.275-.882.369-.484 1.035.64 2.871-2.944 2.4-4.684-.122-.454.191-.569.697-.256 1.164.719 2.358-2.241 1.479-3.665-.416-.673-.175-.766.654-.253.977.604 1.168.261.748-1.346-.31-1.186-.108-2.156.45-2.156.557 0 .745-.698.417-1.552-.386-1.006-.192-1.303.551-.844.779.482.966.019.582-1.448-.31-1.186-.103-2.156.459-2.156s.788-.9.5-2c-.287-1.1-.08-2 .46-2 .541 0 .85-1.551.686-3.446s.028-3.771.424-4.167c1.075-1.075.871-18.387-.217-18.387-.516 0-.682-1.575-.369-3.5.312-1.925.171-3.501-.313-3.503-.485-.002-.916-1.615-.96-3.585s-.493-3.881-1-4.247c-.506-.366-.966-1.227-1.021-1.915s-.167-2.177-.25-3.309c-.093-1.281-.586-1.789-1.305-1.346-.704.436-.883.275-.459-.411.887-1.434-1.949-7.124-4.744-9.521-1.178-1.01-1.467-1.495-.642-1.078 1.006.509.852-.039-.466-1.663-4.582-5.646-9.925-10.799-10.7-10.32-.459.284-.834.03-.834-.565 0-1.561-9.207-7.171-10.779-6.568-.81.311-1.05.063-.617-.638.482-.779.019-.966-1.448-.582-1.186.31-2.156.108-2.156-.45 0-.557-.675-.754-1.5-.437-.825.316-1.5.087-1.5-.51 0-.621-1.079-.879-2.524-.603-1.388.266-2.765.093-3.059-.383-.729-1.181-10.153-1.102-10.89.09m549.723 2.783c3.163.198 8.337.198 11.5 0s.575-.361-5.75-.361-8.913.163-5.75.361M451 569.367c0 .476-.9.631-2 .343-1.1-.287-2-.169-2 .262s-1.311 1.328-2.912 1.992c-3.433 1.421-9.851 8.247-9.303 9.892.21.629.007 1.144-.452 1.144-.458 0-.833 21.557-.833 47.905 0 27.505.377 47.672.884 47.358.487-.301.679.856.427 2.571-.252 1.714-.095 3.241.348 3.392.444.151.927 1.961 1.074 4.022s.653 3.749 1.124 3.75.589.7.261 1.554c-.386 1.006-.192 1.303.551.844.78-.482.966-.019.582 1.449-.311 1.187-.238 1.956.161 1.71.649-.402 3.182 5.248 3.216 7.174.008.424.667 1.136 1.464 1.582.798.447 1.189 1.234.87 1.75-.319.517-.089.939.51.939.6 0 1.391.788 1.759 1.75.855 2.239 3.048 4.501 6.519 6.721 1.512.967 2.75 2.409 2.75 3.203s.453 1.164 1.007.822c.554-.343 1.276.078 1.605.935s.932 1.351 1.341 1.098 1.617.312 2.685 1.256c1.067.943 2.598 1.861 3.401 2.04.804.179 1.603.716 1.776 1.194s1.034.592 1.914.255c.983-.378 1.348-.207.946.443-.359.582-.096 1.037.586 1.013 3.133-.113 4.81.346 4.297 1.177-.309.498.34.671 1.441.383s2.001-.083 2.001.455 1.192.75 2.649.471c1.949-.372 2.444-.175 1.874.746-.566.916-.205 1.072 1.343.581 1.164-.37 2.612-.366 3.217.008.606.375 3.422.821 6.259.992s8.481.623 12.541 1.005c5.678.533 7.21.412 6.633-.522-.566-.916.755-1.131 5.368-.871 3.366.19 6.119-.051 6.118-.536-.001-.484 1.546-.629 3.439-.322 1.892.307 3.58.163 3.75-.321.17-.483 2.109-1.093 4.309-1.356s4.112-.566 4.25-.674.7-.308 1.25-.446 1.337-.36 1.75-.493c.413-.134 1.087-.191 1.5-.125.413.065.75-.359.75-.941s.45-.781 1-.441 1 .093 1-.548.638-.921 1.417-.622c.78.299 1.684-.15 2.009-.997.343-.893 1.239-1.292 2.134-.948.884.339 1.283.169.933-.396-.336-.544-.134-.989.448-.989 1.663 0 2.132-.297 5.861-3.713 1.93-1.767 3.9-2.971 4.378-2.676.478.296.746-.038.595-.741-.151-.704.4-1.32 1.225-1.37s1.391-.622 1.258-1.271c-.133-.65 1.087-2.163 2.711-3.364s2.717-2.565 2.428-3.031c-.288-.467.177-1.117 1.034-1.446s1.309-1 1.004-1.493c-.304-.492-.076-.895.506-.895s.97-.337.861-.75c-.372-1.407 1.33-5.25 2.324-5.25.546 0 .76-.376.476-.835-.659-1.066 1.49-8.165 2.472-8.165.406 0 .503-.9.216-2s-.083-2 .455-2 .763-1.125.5-2.5-.088-2.5.388-2.5c.477 0 .867-21.593.867-48 0-26.399-.337-48-.75-48s-.75-.659-.75-1.465-1.34-2.991-2.977-4.856c-1.638-1.865-2.65-3.753-2.25-4.195s.161-.479-.53-.081c-.734.422-1.506.075-1.855-.834-.329-.857-1-1.309-1.493-1.004-.492.304-.895.091-.895-.475 0-.565-.675-.768-1.5-.452-.825.317-1.5.048-1.5-.598 0-.72-.775-.929-2-.54-1.1.349-2 .267-1.999-.183 0-.449-3.824-.817-8.498-.817s-8.5.266-8.501.592c-.003.764-8.189 3.355-9.502 3.007-.55-.146-.703.031-.34.395.364.363-.643 1.906-2.237 3.429s-2.603 3.063-2.244 3.423c.36.36.143.654-.481.654s-.876.675-.56 1.5c.317.825.168 1.5-.33 1.5-.499 0-.743 1.688-.543 3.75.275 2.835.108 3.384-.685 2.25-.84-1.201-1.052-.94-1.065 1.309-.009 1.621.408 2.548.985 2.191.603-.372 1 .962 1 3.358 0 2.186-.453 4.126-1.007 4.311-.647.216-.563 1.511.237 3.628.953 2.525.967 3.464.059 4.024-.752.465-.859 1.257-.293 2.172.557.901.443 1.981-.303 2.886-.928 1.125-.915 1.54.057 1.867 1.58.532 1.788 17.254.215 17.254-.697 0-.712.604-.047 1.847.686 1.282.621 2.237-.215 3.125-.938.997-.928 1.379.047 1.736 1.38.506 1.788 9.292.431 9.292-.45 0-.787 6.032-.748 13.405.04 7.774-.311 13.171-.836 12.846-.498-.308-.591-.05-.205.574.385.623.175 2.155-.468 3.404-1.633 3.174-6.08 7.793-6.972 7.241-.408-.252-1.018.261-1.356 1.139-.349.912-1.254 1.352-2.104 1.026-.821-.315-1.492-.088-1.492.503 0 .592-.675.817-1.5.5s-1.5-.139-1.5.393c0 .533-3.15.969-7 .969s-7.001-.337-7.002-.75c-.002-.413-1.336-.797-2.965-.855-2.812-.099-10.705-5.056-9.682-6.079.265-.266-.415-1.38-1.512-2.477s-1.748-2.634-1.448-3.416c.301-.783.075-1.423-.502-1.423-.644 0-.794-1.156-.389-3 .421-1.915.261-3-.441-3-.788 0-1.023-12.328-.83-43.372.175-27.928-.085-43.744-.729-44.416-.55-.574-2.09-2.86-3.421-5.081-1.332-2.22-2.798-3.805-3.257-3.521s-1.095-.158-1.412-.983c-.316-.826-1.213-1.256-1.993-.957-.779.299-1.417.06-1.417-.532 0-.591-.675-.816-1.5-.5-.825.317-1.5.19-1.5-.281s-3.825-.857-8.5-.857-8.5.39-8.5.867m175.743.028c.305.492-.638.667-2.094.389-1.457-.279-2.649-.071-2.649.462 0 .532-.675.709-1.5.392s-1.5-.113-1.5.452-.45.75-1 .41-1-.115-1 .5-.52.797-1.155.405c-.67-.415-.884-.277-.511.327.655 1.059-1.017 2.975-2.834 3.249-.55.082-.866.802-.703 1.598s-.371 1.704-1.187 2.017-1.239 1.207-.94 1.987c.299.779.158 1.417-.313 1.417s-.857 31.232-.857 69.405c0 41.988.363 69.18.92 68.836.506-.313.633.18.281 1.095-.351.915-.176 1.664.389 1.664.566 0 .743.461.395 1.025-.349.563-.241.901.238.75 1.252-.395 7.296 4.873 6.502 5.667-.365.365.11.367 1.055.004.946-.363 1.72-.24 1.72.274 0 .513 1.35.735 3 .493 1.888-.277 3-.002 3 .741 0 1.385 14.147 1.277 15.065-.115.31-.472 2.445-.966 4.744-1.098s4.183-.506 4.186-.83c.003-.325 1.106-1.092 2.452-1.705s3.259-2.353 4.25-3.866c1.682-2.565 1.837-7.487 2.303-73.045.275-38.663.193-70.295-.183-70.295-.722 0-2.329-4.044-2.047-5.154.091-.36-.581-1.26-1.494-2-1.4-1.135-1.529-1.129-.825.039.459.762-.58.34-2.308-.938-1.729-1.278-3.143-2.674-3.143-3.104 0-.429-.749-.493-1.664-.142-1.053.404-1.42.243-.999-.438.424-.685-.062-.886-1.336-.553-1.1.288-2.002.133-2.003-.343s-3.784-.867-8.406-.867c-4.691 0-8.159.395-7.849.895m178.121 26.074c-.275.275-25.167.522-55.316.548s-54.586.278-54.304.56c.281.281-1.205 2.245-3.303 4.364s-3.573 4.094-3.277 4.389.166 1.129-.286 1.853c-1.081 1.732-1.12 12.817-.045 12.817.459 0 .648.558.42 1.241s.189 1.844.926 2.581 1.041 1.822.676 2.413-.257.851.24.578c.914-.5 4.558 2.701 3.865 3.394-.206.206.612.448 1.818.539s2.312.523 2.457.96 11.965.696 26.265.576c14.3-.119 26 .055 26 .387 0 .614-11.688 14.173-15.37 17.831l-2.013 2 1.441-2c1.329-1.843 1.306-1.893-.297-.637-.956.75-1.52 1.717-1.253 2.15s-1.104 2.181-3.046 3.886-3.257 3.101-2.921 3.101-2.181 3.141-5.593 6.98-6.607 6.731-7.101 6.426-.773-.166-.622.309-1.709 3.096-4.133 5.824c-2.425 2.729-3.775 4.061-3 2.961 1.294-1.839 1.268-1.89-.331-.637-.956.75-1.517 1.723-1.245 2.163s-2.096 3.156-5.261 6.036c-3.165 2.881-4.855 4.608-3.755 3.838s.425.439-1.5 2.686c-1.925 2.248-3.907 3.866-4.405 3.596-.497-.27-.593.012-.213.627s-.141 1.95-1.158 2.967-1.671 2.383-1.453 3.037.021 1.187-.438 1.187c-.458 0-.833 2.925-.833 6.5s.337 6.5.75 6.5.75.935.75 2.077c0 1.83 3.031 5.406 7.139 8.423 1.759 1.292 110.908 1.384 110.109.092-.309-.5.451-.643 1.695-.317 1.24.324 2.04.375 1.778.112-.263-.262.818-1.772 2.401-3.355s2.878-3.614 2.878-4.514.337-1.427.75-1.173c.413.255.75-3.5.75-8.345 0-5.02-.39-8.568-.908-8.248-.499.308-.657-.394-.352-1.561.305-1.168.232-2.026-.163-1.907s-1.884-1.134-3.31-2.784l-2.591-3-30.126-.317-30.126-.317 6.288-6.096c3.458-3.353 5.388-5.511 4.288-4.797s1.749-2.411 6.331-6.946 7.732-7.899 7-7.475-.253-.413 1.064-1.86 2.791-2.386 3.275-2.087.756-.052.605-.781c-.151-.728.321-1.2 1.049-1.049.729.151 1.102-.085.83-.525s2.508-3.97 6.176-7.844 5.545-5.663 4.17-3.975l-2.5 3.069 3.203-2.892c1.761-1.59 3.112-3.165 3.001-3.5-.34-1.023 6.532-9.08 7.326-8.589.409.252 1.299-.211 1.979-1.03s.872-1.489.426-1.489c-.445 0 .469-1.334 2.031-2.964 1.562-1.631 3.232-2.722 3.712-2.426.479.296.765.168.634-.286-.423-1.47 2.259-5.398 3.263-4.778.536.332.89.232.786-.222-.329-1.433 1.324-6.328 1.996-5.913.354.219.643-3.116.643-7.411s-.285-7.633-.634-7.417c-.349.215-1.205-.988-1.903-2.673-.699-1.686-2.438-3.807-3.866-4.714-1.429-.908-2.853-2.004-3.165-2.438-.313-.433-.793-.563-1.068-.289"/></svg>