<svg xmlns="http://www.w3.org/2000/svg" width="1024" height="1024"><path fill="#fffeff" fill-rule="evenodd" d="M324.271 380.964c-9.708 4.407-12.087 17.806-4.321 24.34 1.549 1.304 5.992 3.391 9.874 4.64 7.459 2.398 10.808 4.967 9.823 7.534-1.561 4.067-9.374 3.866-16.346-.42l-3.2-1.967-2.603 3.094c-4.053 4.816-3.148 7.732 3.431 11.065 10.323 5.228 24.454 3.101 28.994-4.364 2.967-4.879 3.406-10.354 1.225-15.284-2.116-4.783-6.197-7.767-13.148-9.615-6.64-1.766-10-3.774-10-5.977 0-4.395 6.47-4.806 14.187-.9l3.687 1.866 2.022-2.57c3.547-4.511 3.674-6.54.56-9.022-5.673-4.524-17.044-5.662-24.185-2.42m49.356-.556c-16.236 6.04-21.628 27.247-10.745 42.271 6.73 9.29 22.15 12.319 33.236 6.528 9.858-5.15 14.503-14.074 13.644-26.215-.705-9.961-5.113-17.024-13.262-21.249-5.165-2.678-17.35-3.389-22.873-1.335m258.623-.741-4.25.448V431h12v-16h2.816c2.445 0 3.181.762 5.577 5.776 4.604 9.633 5.558 10.5 11.462 10.424 7.198-.093 7.145-.084 7.145-1.235 0-.569-2.079-4.698-4.619-9.175l-4.619-8.141 2.742-1.998c8.692-6.331 6.875-23.869-2.966-28.633-4.49-2.173-16.433-3.284-25.288-2.351M418 405.5V431h12v-19h17v-11h-17v-8.93l10.25-.285 10.25-.285.3-5.75.3-5.75H418zm39-20v5.5h12v40h13.075l-.122-19.75-.123-19.75 6.085-.298 6.085-.297V380h-37zm42-3.75c0 1.751 12.515 48.098 13.162 48.745.826.827 12.968.765 13.711-.07.72-.81 3.626-10.696 7.107-24.175.603-2.337 1.434-4.25 1.846-4.25s2.215 5.968 4.006 13.263c1.791 7.294 3.574 13.767 3.962 14.384.775 1.232 12.457 2.469 13.917 1.474.776-.53 15.289-48.376 15.289-50.405 0-.959-12.992-.924-13.029.034-.016.413-1.994 8.399-4.395 17.747l-4.366 16.997-1.164-4.497c-.64-2.473-2.23-8.547-3.533-13.497-1.304-4.95-2.875-10.933-3.493-13.296l-1.122-4.297-6.169.297-6.17.296-1.216 4.5c-.67 2.475-2.681 10.119-4.471 16.986l-3.254 12.487-3.633-14.487a20548 20548 0 0 0-4.328-17.236c-.661-2.616-.987-2.75-6.676-2.75-5.03 0-5.981.278-5.981 1.75m81.317 23.505c-5.051 13.866-9.026 25.369-8.834 25.561s2.952.425 6.133.517l5.783.167 1.476-4.75 1.476-4.75h19.298l1.459 4.698 1.459 4.697 5.834.079c3.442.046 6.009-.38 6.262-1.039.336-.876-10.953-32.89-16.816-47.685-1.037-2.617-1.41-2.749-7.718-2.729l-6.629.021zm94.374-24.612c-.38.38-.691 11.865-.691 25.524V431h34v-10.932l-10.668-.284-10.669-.284v-4l-.001-4 8.669-.289 8.669-.289V400h-17.594l.091-4.25.092-4.25 10.756-.284 10.757-.285-.301-5.215-.301-5.216-16.059-.274c-8.833-.15-16.371.037-16.75.417m-299.076 12.445c-3.749 2.949-5.615 7.073-5.615 12.412 0 9.091 5.058 14.5 13.558 14.5 4.288 0 5.896-.511 8.501-2.703 3.588-3.019 5.952-7.818 5.919-12.015-.036-4.528-3.518-10.993-6.85-12.716-4.453-2.303-12.255-2.04-15.513.522M640 398.034v7.035l5.25-.636c8.336-1.008 11.225-6.048 6.295-10.978-1.886-1.887-3.507-2.455-7-2.455H640zm-46.367 3.73c-3.286 10.096-3.538 9.236 2.71 9.236h5.576l-2.644-7.5c-1.455-4.125-2.899-7.494-3.21-7.486-.311.007-1.405 2.595-2.432 5.75m-209.46 61.141c-6.598 2.279-12.336 7.721-15.228 14.444-1.795 4.173-2.1 6.41-1.735 12.724.983 16.974 12.276 25.936 31.144 24.714 4.166-.27 9.127-1.341 11.896-2.569l4.75-2.106V484h-22.105l.303 5.25.302 5.25 4.807.307 4.807.307-.307 3.661c-.279 3.333-.648 3.741-4.116 4.556-8.103 1.905-16.37-2.886-18.54-10.745-1.056-3.825-.168-10 1.926-13.393 3.677-5.959 13.963-8.315 20.992-4.808 4.618 2.303 5.294 2.093 7.846-2.447 2.187-3.893 2.209-4.143.52-6.01-4.244-4.689-18.016-6.216-27.262-3.023m337.69-1.2c-5.09.783-13.149 6.565-16.327 11.714-2.664 4.317-3.079 5.998-3.385 13.73-.294 7.442-.013 9.504 1.809 13.268C708.457 509.708 717.907 515 730 515c5.52 0 15.4-2.308 17.62-4.116 1.161-.947 2.423-20.207 1.604-24.492-.447-2.34-.684-2.392-10.841-2.392H728v11h10.121l-.311 3.75c-.292 3.536-.555 3.801-4.592 4.649-11.833 2.484-21.355-7.751-18.179-19.542 2.369-8.799 11.236-13.428 19.845-10.362 8.519 3.035 8.385 3.059 11.116-2.002 2.475-4.586 2.48-4.647.517-6.093-4.718-3.476-15.535-5.097-24.654-3.695m-446.172.937c-.38.38-.691 12.091-.691 26.025V514h33v-11h-21v-9h17v-11h-17.11l.305-4.75.305-4.75h20v-11l-15.559-.274c-8.557-.151-15.87.036-16.25.416m40.976.025c-.367.366-.667 12.066-.667 26V514h12v-14.5c0-7.975.337-14.483.75-14.462.413.02 4.552 6.114 9.198 13.542 4.647 7.427 8.998 13.96 9.669 14.517s3.593.876 6.494.708l5.273-.305.366-15.5c.202-8.525.071-20.134-.291-25.797l-.658-10.297-5.512.297-5.512.297.159 13.75c.088 7.563-.199 13.729-.638 13.704-.439-.026-4.811-6.326-9.715-14L328.666 462H323c-3.117 0-5.967.3-6.333.667M424 487.95V514h12.034l-.267-25.75-.267-25.75-5.75-.3-5.75-.3zm22.45-24.681c-.267.698-.366 12.285-.218 25.75l.268 24.481 5.724.299 5.723.299.277-15.299.276-15.299 9.54 15 9.539 15H489.5v-51l-5.722-.299-5.722-.299-.278 14.299-.278 14.299-9.354-14.25-9.355-14.25h-5.927c-3.866 0-6.096.441-6.414 1.269m53 0c-.267.698-.366 12.285-.218 25.75l.268 24.481 16.25.275 16.25.275V503h-21v-8.922l8.75-.289 8.75-.289.302-5.25.303-5.25H510.89l.305-4.75.305-4.75 10-.065 10-.066.3-5.684.3-5.685h-16.081c-12.071 0-16.203.316-16.569 1.269m41.127-.044c-.209.701-.312 12.3-.229 25.775l.152 24.5h33l.302-5.25.303-5.25H553v-9h17v-11h-17.11l.305-4.75.305-4.75 8-.099c13.768-.17 12.647.344 12.302-5.651l-.302-5.25-16.272-.275c-12.511-.211-16.359.02-16.651 1M582 488v26h12v-17l2.75.025c2.404.023 3.316 1.061 7.25 8.25l4.5 8.225 6.75.296c3.712.162 6.75-.009 6.75-.382 0-.372-2.277-4.656-5.06-9.519l-5.06-8.842 3.512-3.512c8.051-8.05 5.462-22.978-4.793-27.636-3.272-1.485-6.571-1.866-16.349-1.883L582 462zm46.47-24.781c-.279.725-.386 12.335-.238 25.8l.268 24.481h12v-51l-5.762-.3c-4.072-.212-5.911.086-6.268 1.019m22.197-.552c-.367.366-.667 12.066-.667 26V514h11.948l.276-15.044.276-15.044 9.514 14.794 9.515 14.794H693.5v-51h-12v13.251c0 7.288-.225 13.251-.5 13.25s-4.493-6.077-9.373-13.502L662.754 462h-5.71c-3.141 0-6.011.3-6.377.667M594 480.127v7.127l5.168-.496c5.9-.567 7.832-2.39 7.832-7.392 0-4.172-3.006-6.366-8.723-6.366H594zM715 539c-2.491 2.491-2.554 5.189-.171 7.345 3.856 3.49 10.171 1.102 10.171-3.845 0-5.138-6.194-7.306-10-3.5m-58.877 12.068c-13.888 3.008-17.054 21.602-5.069 29.775 2.93 1.999 4.307 2.275 9.196 1.849l5.75-.502v3.298c0 3.586 1.253 4.512 6.105 4.512h2.941l-.273-17.75-.273-17.75-3.5-1.643c-4.316-2.026-10.404-2.758-14.877-1.789M681 562.032c0 12.363 1.249 16.774 5.546 19.59 3.931 2.576 12.489 2.474 16.128-.193 5.158-3.78 6.389-7.705 6.092-19.429l-.266-10.5-4.717-.303-4.716-.304-.284 11.304-.283 11.303-2.951.336c-4.579.521-5.549-1.757-5.549-13.027V551h-9zm33.462-9.794c-.286.745-.394 7.858-.241 15.808l.279 14.454 4.776.306 4.775.306-.275-15.806-.276-15.806-4.259-.308c-2.888-.209-4.427.128-4.779 1.046m15.205-.571c-.367.366-.667 2.37-.667 4.452v3.786l6.139.297 6.139.298-6.139 7.341c-5.237 6.262-6.139 7.919-6.139 11.28v3.939l12.75-.28 12.75-.28.314-4.389.315-4.389-7.043.504-7.042.504 6.478-7.83c5.607-6.777 6.478-8.373 6.478-11.865V551h-11.833c-6.509 0-12.134.3-12.5.667m-74.628 10.522c-1.121 1.203-2.039 3.436-2.039 4.961 0 5.64 7.7 9.049 11.345 5.021 1.934-2.136 2.226-9.2.455-10.971-1.994-1.994-7.502-1.436-9.761.989"/><path fill="#fbcc74" fill-rule="evenodd" d="M494.18 385.25 494 391h-5.941c-3.268 0-6.151.337-6.408.75-.256.413 2.446.598 6.007.412 7.325-.383 7.633-.721 7.082-7.789l-.38-4.873zm-34.43 6.473c1.788.222 4.712.222 6.5 0 1.788-.221.325-.403-3.25-.403s-5.038.182-3.25.403m226.901.027c-.257.413 2.754.627 6.691.477 12.863-.491 14.348-.888 3.967-1.059-5.605-.092-10.401.169-10.658.582m.001 20c-.257.413 2.304.624 5.691.47 10.352-.47 11.578-.913 2.966-1.07-4.505-.083-8.401.187-8.657.6m-265.884 19.975c1.797.222 4.497.218 6-.01 1.503-.229.032-.411-3.268-.405s-4.529.192-2.732.415m52 0c1.797.222 4.497.218 6-.01 1.503-.229.032-.411-3.268-.405s-4.529.192-2.732.415m43 0c1.797.222 4.497.218 6-.01 1.503-.229.032-.411-3.268-.405s-4.529.192-2.732.415m116 0c1.797.222 4.497.218 6-.01 1.503-.229.032-.411-3.268-.405s-4.529.192-2.732.415m50.982.019c4.538.185 11.962.185 16.5 0s.825-.337-8.25-.337-12.788.152-8.25.337m-335.944 45.258c-.168 7.151.031 13.001.444 13S348 484.15 348 477s-.2-13-.444-13c-.245 0-.582 5.851-.75 13.002m89.628 11.498c-.001 13.75.14 19.514.313 12.808.172-6.705.173-17.955.001-25-.172-7.044-.314-1.558-.314 12.192m145 0c-.001 13.75.14 19.514.313 12.808.172-6.705.173-17.955.001-25-.172-7.044-.314-1.558-.314 12.192m-123.06 14c.002 6.05.167 8.396.366 5.213.199-3.182.197-8.132-.004-11-.201-2.867-.364-.263-.362 5.787m-130.009 0c.003 5.5.171 7.622.373 4.716.203-2.905.201-7.405-.004-10s-.371-.216-.369 5.284m420.984-1.5c0 4.675.173 6.587.383 4.25s.211-6.163 0-8.5c-.21-2.337-.383-.425-.383 4.25m-86.989 3c0 5.225.169 7.363.375 4.75s.206-6.887 0-9.5-.375-.475-.375 4.75m-63.647 34.422c-6.05 1.627-11.464 5.98-14.499 11.657-2.007 3.755-2.314 5.561-2.039 11.994.394 9.177 3.292 14.358 10.342 18.49 5.559 3.257 15.221 4.33 21.974 2.44 10.439-2.923 17.368-13.394 16.22-24.512-1.051-10.184-6.751-17.194-16.325-20.075-5.66-1.704-9.32-1.702-15.673.006m-275.394 9.532c-26.474 6.184-46.54 21.672-57.334 44.253-7.086 14.822-8.355 21.476-8.355 43.793 0 17.004.282 20.524 2.201 27.5 9.771 35.516 36.648 58.115 72.745 61.166l7.556.639 4.06 5.978c7.674 11.3 21.229 22.851 33.14 28.241 8.253 3.735 19.65 5.684 26.649 4.556 3.251-.523 6.947-1.484 8.215-2.136 3.417-1.756 8.761-7.036 10.517-10.39 2.297-4.39 2.119-14.443-.33-18.645-1.933-3.316-2.204-3.426-9.935-4.042-9.393-.749-15.952-2.304-23.372-5.543-9.029-3.941-9.029-4.014-.051-9.195 20.44-11.796 33.401-28.283 39.056-49.683 2.68-10.142 3.661-32.301 1.986-44.874-4.69-35.21-26.391-61.135-59.106-70.609-10.924-3.163-36.134-3.697-47.642-1.009m352.07 23.546c.001 7.15.161 9.944.353 6.208.193-3.735.192-9.585-.003-13-.194-3.414-.352-.358-.35 6.792M331.33 587.795c-11.141 3.973-20.359 13.687-25.343 26.705-3.158 8.251-3.98 28.072-1.556 37.54 3.724 14.546 10.983 24.524 22.053 30.314 5.685 2.973 6.621 3.146 17.016 3.146 9.841 0 11.602-.282 16.718-2.68 11.58-5.428 21.089-17.533 24.226-30.842 3.278-13.912 1.097-32.597-5.172-44.303-3.896-7.273-12.137-15.263-19.004-18.424-7.702-3.546-21.176-4.224-28.938-1.456m128.325 5.602c-2.114.788-4.97 2.483-6.345 3.768-5.325 4.974-5.31 4.841-5.31 46.18 0 36.147.125 38.854 2.091 45.3 5.13 16.823 16.968 27.47 35.597 32.018 9.63 2.351 32.535 2.361 41.312.018 16.476-4.397 27.951-12.698 33.932-24.546 5.596-11.085 6.037-15.027 6.053-54.069.014-33.812-.08-35.63-2.056-39.713-6.511-13.449-31.349-13.439-38.715.016-1.496 2.733-1.778 7.576-2.214 38.131-.467 32.696-.632 35.224-2.5 38.395-3.009 5.11-6.689 7.373-12.812 7.881-7.781.645-13.82-2.202-16.847-7.942-2.233-4.235-2.293-5.132-2.615-39.226-.309-32.616-.462-35.15-2.342-38.834-1.482-2.907-3.226-4.48-6.636-5.989-5.938-2.626-15.532-3.273-20.593-1.388m135.795.01c-4.449 1.938-8.234 6.95-8.946 11.848-.339 2.335-.479 26.295-.31 53.245.276 44.261.474 49.307 2.041 52.171 2.727 4.985 7.101 7.474 15.104 8.596 8.142 1.141 13.659.096 18.152-3.438 5.489-4.318 5.509-4.539 5.503-58.547-.003-29.703-.404-51.217-.993-53.339-1.181-4.251-5.127-8.263-10.219-10.39-4.554-1.902-16.11-1.985-20.332-.146m55.646 3.858c-8.571 4.405-9.449 21.352-1.493 28.834 2.493 2.344 3.061 2.413 24.057 2.901l21.504.5-25.954 30.22c-14.274 16.621-26.774 31.921-27.777 34-2.555 5.298-2.481 13.734.165 18.78 3.951 7.535 2.305 7.302 54.077 7.671 45.337.323 46.225.292 48.938-1.733 5.771-4.306 6.887-6.888 6.887-15.938 0-6.906-.362-8.843-2.09-11.177-3.956-5.345-6.002-5.762-30.137-6.154l-22.228-.361 8.274-10.154c38.461-47.201 39.192-48.158 42.71-55.908 3.265-7.193 2.336-15.579-2.27-20.496l-2.108-2.25-45.075.015c-33.785.011-45.678.324-47.48 1.25"/><path fill="#a62870" fill-rule="evenodd" d="M472.503 193.297c-6.085 3.446-7.851 7.826-12.985 32.203-2.548 12.1-4.96 22.621-5.359 23.38s-6.177 2.871-12.84 4.692c-15.855 4.334-34.17 11.715-53.224 21.449-15.028 7.678-15.476 7.833-18.308 6.369-1.597-.826-11.483-7.189-21.97-14.141-18.008-11.938-19.386-12.663-24.835-13.057-3.174-.229-7.383.115-9.355.766-5.983 1.975-50.657 45.37-54.035 52.489-2.276 4.797-2.036 12.756.539 17.843 2.119 4.185 18.833 29.086 25.331 37.737l3.4 4.527-4.52 6.973c-9.768 15.071-18.987 37.136-24.289 58.134l-2.736 10.839-26.409 4.581c-14.524 2.519-28.082 4.899-30.129 5.289-4.787.913-9.575 4.972-11.899 10.089-1.669 3.674-1.836 7.219-1.836 39.041 0 48.715-1.557 46.189 32.643 52.958 11.997 2.375 25.122 4.899 29.166 5.608 8.123 1.426 7.531.787 10.91 11.772l1.949 6.338-2.915 5.382c-4.65 8.585-8.456 20.129-10.326 31.32-2.068 12.371-1.621 35.301.912 46.865 7.772 35.478 33.991 62.767 67.47 70.224 5.019 1.118 10.62 2.033 12.445 2.033 3.877 0 5.724 1.205 9.196 6 4.478 6.186 15.714 16.873 22.584 21.483 7.799 5.233 18.843 9.848 27.666 11.562 8.483 1.648 20.564.824 26.473-1.805 6.977-3.104 14.248-10.414 17.768-17.864 1.657-3.507 3.576-6.364 4.264-6.35s4.401 1.098 8.251 2.409l7 2.384 5.806 22.34c6.882 26.486 8.36 29.975 14.128 33.355l4.242 2.486h34.694c37.696 0 38.662-.124 43.827-5.627 3.755-4.001 4.792-6.979 10.837-31.134l5.321-21.26 7.072-2.103c11.08-3.295 29.709-10.399 45.928-17.515 17.196-7.544 15.617-7.625 29.084 1.501C665.322 742.915 669.95 745 675.945 745c6.423 0 10.018-1.8 17.231-8.628l5.676-5.372h21.396c25.566 0 28.463-.661 35.058-7.995 12.547-13.955 9.341-37.1-6.268-45.254-4.954-2.588-6.032-2.751-18.198-2.751h-12.931l4.796-5.842c2.637-3.213 8.06-9.714 12.051-14.447 14.036-16.648 23.006-30.639 24.722-38.564 1.417-6.544.699-14.305-1.79-19.333l-2.383-4.816 2.278-3.249c1.252-1.787 3.703-7.749 5.445-13.249s3.505-10.667 3.917-11.482c.521-1.029 9.521-3.225 29.493-7.194 15.809-3.142 29.797-6.403 31.086-7.248 3.691-2.418 7.225-7.675 8.454-12.576.76-3.028 1.03-15.511.825-38.166l-.303-33.666-3.014-4.286c-1.657-2.357-4.392-5.091-6.076-6.075-1.919-1.12-13.121-3.485-29.986-6.329-14.808-2.498-27.684-4.774-28.613-5.058-1.122-.343-2.077-2.43-2.846-6.218-3.546-17.479-15.4-46.606-25.679-63.098-5.22-8.375-5.379-7.176 2.287-17.251 6.1-8.018 17.879-25.692 20.828-31.252 3.697-6.968 3.582-13.775-.331-19.68-4.766-7.19-47.003-48.444-51.593-50.392-2.738-1.161-5.888-1.572-10.112-1.318-6.03.363-6.514.623-28.143 15.095l-22.007 14.726-9.56-5.519c-18.225-10.522-45.315-21.617-63.484-25.999-5.575-1.345-7.534-2.277-8.182-3.891-.469-1.168-2.688-10.898-4.932-21.623-2.243-10.725-4.574-21.3-5.178-23.5-1.347-4.899-7.427-10.96-11.891-11.852-1.781-.357-18.594-.641-37.363-.632-33.592.017-34.187.052-38.122 2.281m-78.775 11.953c-1.226.926-2.076 4.742-3.281 14.722-.895 7.41-2.181 16.653-2.857 20.541s-1.048 7.614-.826 8.278c.467 1.402 4.852 1.64 5.675.308.724-1.172 5.522-33.747 5.723-38.854.23-5.882-1.171-7.46-4.434-4.995m227.143 2.756c-9.094 4.805-12.996 15.289-9.422 25.312 1.124 3.149 1.134 4.256.062 6.323-2.983 5.75 2.924 12.359 11.048 12.359 3.43 0 4.72-.542 6.602-2.772 1.286-1.525 4.448-3.576 7.025-4.559 7.734-2.947 13.788-11.395 13.808-19.27.009-3.311-2.047-8.598-4.766-12.258-4.965-6.682-16.734-9.163-24.357-5.135m-213.621 3.725c-.687.239-1.25 1.504-1.25 2.81 0 2.084.885 2.635 7.25 4.51 3.988 1.174 7.611 2.477 8.052 2.894s-1.73 3.073-4.824 5.901c-5.843 5.34-6.814 8.388-2.856 8.956 2.571.368 18.378-14.068 18.378-16.785 0-2.101-5.247-4.333-16.5-7.019-2.75-.656-5.45-1.308-6-1.448-.55-.141-1.562-.059-2.25.181m217.75.973c-3.076 1.119-7.065 5.823-8.054 9.498-1.379 5.121.186 10.592 4.104 14.346 2.65 2.539 3.852 2.952 8.587 2.952 5.182 0 5.738-.248 9.435-4.211 3.55-3.806 3.928-4.723 3.928-9.528 0-6.022-1.416-8.619-6.367-11.679-3.19-1.971-8.33-2.58-11.633-1.378m-260.381 14.497c-12.05 11.588-11.727 12.931 4.056 16.888 10.887 2.729 14.325 2.609 14.325-.502 0-2.249-2.225-3.388-10.027-5.131-4.11-.919-7.792-1.964-8.183-2.323-.39-.358 2.182-3.123 5.716-6.143 5.032-4.299 6.379-6.03 6.21-7.981-.394-4.542-3.25-3.316-12.097 5.192m270.395-3.229c-2.364 4.635-4.548 6.028-9.448 6.028-2.822 0-3.566.392-3.566 1.878 0 7.321 14.18 3.722 17.602-4.469 2.763-6.612-1.383-9.719-4.588-3.437m-18.076 18.912c.623 1.164 1.53 2.116 2.015 2.116s1.595.273 2.465.607 1.582.181 1.582-.339c0-.8-1.82-1.976-6.347-4.102-.466-.218-.338.555.285 1.718m171.3 122.278c-1.421 1.421-1.633 7.666-.33 9.723 1.313 2.074 17.935 2.711 20.542.788 1.99-1.468 2.629-6.418 1.281-9.931-1.046-2.727-5.55-2.234-6.913.758-1.546 3.393-6.882 3.553-8.331.25-1.13-2.576-4.424-3.413-6.249-1.588M208.5 376.985c-8.321 3.297-8.5 3.775-8.5 22.726V416.2l3.25 3.243c8.051 8.034 33.636 6.765 39.347-1.951 1.494-2.28 1.765-5.049 1.76-18.001-.007-17.284-.509-18.861-7.032-22.079-5.773-2.848-22.104-3.09-28.825-.427m117.5 2.677c-7.003 2.91-11.506 10.156-10.709 17.23.677 6.007 5.07 10.067 14.168 13.095 8.184 2.723 11.07 5.157 9.529 8.036-1.612 3.011-9.588 2.737-14.347-.492-2.001-1.358-4.243-2.237-4.982-1.954s-2.358 2.323-3.6 4.531c-2.129 3.79-2.161 4.122-.562 5.889 2.292 2.532 9.064 5.602 14.282 6.474 14.357 2.398 26.369-9.402 22.257-21.863-1.651-5.001-5.726-8.008-15.074-11.121-8.292-2.761-10.128-4.377-7.951-7 1.695-2.043 7.634-1.831 12.66.451 4.564 2.072 5.464 1.675 8.201-3.622 1.912-3.703 1.289-5.192-3.122-7.461-4.277-2.2-17.397-3.587-20.75-2.193m44.936 2.088c-6.227 3.158-11.311 9.227-13.02 15.542-1.668 6.164-.634 15.357 2.401 21.347 4.707 9.289 12.048 13.625 23.183 13.693 10.369.063 18.133-4.404 23.982-13.797 2.408-3.868 3.229-15.923 1.504-22.083-1.777-6.349-8.693-13.823-14.676-15.862-7.541-2.57-16.94-2.103-23.374 1.16m258.797-2.117c-1.638.482-1.747 2.38-1.5 26.194l.267 25.673 5.75.3 5.75.3v-17.233l2.75.317c2.325.267 3.414 1.591 7.044 8.566l4.294 8.25h6.397c3.518 0 6.627-.372 6.908-.827s-1.708-4.784-4.42-9.622l-4.931-8.796 2.499-1.966c8.843-6.955 7.213-23.777-2.804-28.95-3.469-1.791-6.23-2.236-15.237-2.456-6.05-.148-11.795-.035-12.767.25M417.812 391.25c-.171 6.188-.177 17.909-.011 26.048l.3 14.799 5.7-.299 5.699-.298.286-9.75.286-9.75H447v-11.641l-8.5.446-8.5.446V392h21v-12h-32.875zm38.931-10.5c-.206.413-.301 1.425-.211 2.25s.232 3.188.316 5.25L457 392h11.958l.271 19.75.271 19.75h12l.271-19.703.271-19.703 6.229-.297 6.229-.297.3-5.75.3-5.75h-18.991c-10.445 0-19.16.337-19.366.75M499 382.098c0 2.439 11.769 45.552 13.145 48.152.735 1.389 2.251 1.75 7.358 1.75h6.433l2.487-8.25c1.367-4.538 3.244-11.316 4.169-15.063s2.004-6.447 2.397-6 1.925 5.538 3.405 11.313a2540 2540 0 0 0 3.698 14.293l1.008 3.793 7.166-.293 7.166-.293 2.204-7.5c1.211-4.125 4.489-15.211 7.283-24.635S572 381.728 572 381.115c0-.705-2.382-1.115-6.481-1.115-6.237 0-6.507.104-7.169 2.75-5.363 21.424-8.232 31.478-8.633 30.25-.269-.825-1.694-6.225-3.168-12-1.473-5.775-3.356-12.863-4.185-15.75l-1.506-5.25h-12.61l-3.574 14.279c-5.254 20.986-4.806 20.599-8.103 7.007-1.573-6.482-3.487-13.923-4.254-16.536l-1.394-4.75h-5.962c-5.387 0-5.961.202-5.961 2.098m81.218 23.062c-5.124 14.03-8.838 25.62-8.361 26.097.472.472 3.274.719 6.227.55 5.367-.307 5.369-.308 7.026-4.807l1.658-4.5h18.473l1.755 4.5 1.755 4.5 6.125.298c5.388.262 6.124.076 6.124-1.543 0-1.012-4.009-12.621-8.908-25.798l-8.909-23.957-6.873-.289-6.873-.29zm94.015.59.267 25.75h33l.3-5.75.3-5.75H687v-7.919l8.25-.291 8.25-.29.3-5.75.3-5.75H687v-7.93l10.25-.285 10.25-.285.3-5.75.3-5.75h-34.134zm109.797-25.005c-8.695.596-10.647 3.778-4.53 7.388 5.229 3.085 4.358 6.867-1.582 6.867-1.521 0-1.918.716-1.918 3.455 0 3.143.309 3.512 3.431 4.098 4.482.841 5.265 3.097 2.205 6.36-3.254 3.469-2.166 6.933 2.024 6.446 1.562-.181 5.427-.617 8.59-.968l5.75-.639v-15.841c0-14.638-.147-15.919-1.934-16.876-1.064-.569-2.977-.952-4.25-.85s-4.777.354-7.786.56m18.17.455c-1.617 1.617-1.692 31.378-.082 32.373.614.38 2.977.788 5.25.907 2.272.119 5.82.568 7.882.999l3.75.783v-3.817c0-2.521-.725-4.588-2.136-6.09l-2.136-2.274 2.386-.959c1.312-.528 3.174-1.207 4.136-1.509 1.142-.359 1.75-1.566 1.75-3.473 0-2.485-.61-3.167-4.07-4.551-4.882-1.954-4.996-4.565-.258-5.924 3.595-1.031 4.869-3.982 2.668-6.183-1.879-1.878-17.316-2.106-19.14-.282m-590.927.913c-1.775.513-3.695 1.807-4.267 2.875-.862 1.611-.573 2.25 1.681 3.728 4.92 3.225 22.836 2.851 28.166-.589 2.238-1.443-.389-4.904-4.615-6.078-4.526-1.257-16.521-1.22-20.965.064m164.917 10.853c-8.249 5.177-8.114 19.959.23 25.208 4.743 2.984 12.773 2.095 16.719-1.851 5.877-5.878 5.83-16.104-.101-21.787-4.063-3.893-11.973-4.63-16.848-1.57M640 397.5v6.5h4.929c5.894 0 8.071-1.757 8.071-6.515 0-4.299-2.94-6.485-8.723-6.485H640zm-433.823.618c.472 4.928 4.025 6.352 15.823 6.342 11.438-.009 15.505-1.635 16.217-6.484l.454-3.096-4.085.81c-5.409 1.072-20.107 1.034-24.909-.065l-3.822-.875zM595.622 397c-.878 2.194-4.622 13.254-4.622 13.657 0 .188 2.25.343 5 .343s5-.362 5-.805-1.075-3.931-2.388-7.75c-1.453-4.225-2.624-6.357-2.99-5.445M205.57 409.677c-.949 2.475 1.234 5.999 4.596 7.417 1.983.836 6.778 1.406 11.834 1.406 10.67 0 15.314-2.182 15.823-7.434.269-2.775.042-3.228-1.35-2.694-5.724 2.196-15.255 2.785-22.681 1.401-6.415-1.195-7.794-1.211-8.222-.096m179.312 52.644c-8.331 3.114-14.025 8.526-16.826 15.994-1.722 4.59-1.26 16.641.811 21.185 2.566 5.629 6.695 10.219 11.509 12.794 3.537 1.892 5.691 2.206 15.124 2.203 9.004-.003 11.726-.367 15-2.006l4-2.004.279-13.243.279-13.244H393v11h10v3.393c0 3.997-1.107 4.608-8.332 4.603-9.994-.007-15.314-6.194-14.435-16.788.373-4.508 1.009-5.917 4.034-8.941s4.433-3.661 8.941-4.034c3.547-.294 6.647.097 9.194 1.161 2.113.884 4.453 1.606 5.2 1.606 1.294 0 5.398-6.796 5.398-8.94 0-.561-1.913-2.006-4.25-3.212-5.308-2.739-18.385-3.575-23.868-1.527m202.875-.641c-4.912.359-5.822.738-6.282 2.62-.297 1.21-.412 12.775-.257 25.7l.282 23.5 6.25.298 6.25.297v-17.228l2.741.317c2.294.264 3.473 1.663 7.223 8.566l4.482 8.25h6.777c3.727 0 6.777-.436 6.777-.969s-2.281-4.832-5.069-9.552l-5.069-8.582 2.589-2.037c3.792-2.983 5.709-7.398 5.762-13.27.069-7.727-3.945-14.029-10.525-16.522-3.397-1.287-14.07-1.963-21.931-1.388m131.212.798c-10.46 3.359-17.262 13.36-17.357 25.522-.028 3.575.552 8.246 1.289 10.381 1.716 4.969 7.328 11.178 12.531 13.864 5.615 2.899 18.267 3.566 25.848 1.362 8.666-2.519 8.825-2.837 8.5-16.958l-.28-12.149-10.75-.284-10.75-.284V495h10v3.461c0 3.221-.292 3.541-4.21 4.596-3.186.858-5.194.843-8.25-.06-7.272-2.15-10.54-6.799-10.54-14.997 0-9.804 5.226-15.017 15-14.961 3.025.018 6.625.675 8 1.461s3.205 1.445 4.066 1.465c1.501.034 5.934-6.563 5.934-8.831 0-.601-1.913-2.08-4.25-3.286-5.431-2.802-18.134-3.505-24.781-1.37M275 488v26h33.1l-.3-5.608-.3-5.608-10-.142-10-.142-.306-4.21-.305-4.211 8.805-.289 8.806-.29.301-5.21.301-5.211-8.801-.289-8.801-.29-.306-4.214-.306-4.215 10.306-.285 10.306-.286.3-5.75.3-5.75H275zm41 0v26h5.981c5.635 0 6.019-.153 6.646-2.649.365-1.456.378-7.981.027-14.5-.35-6.518-.431-11.851-.18-11.851.428 0 5.844 8.189 15.061 22.773l3.965 6.273 6-.273 6-.273v-51h-12l-.5 13.472-.5 13.471-8.843-13.721L328.813 462H316zm108 .048v26.047l6.25-.297 6.25-.298.282-23.5c.155-12.925.034-24.512-.269-25.75-.495-2.021-1.16-2.25-6.532-2.25H424zm22.667-25.381c-.367.366-.667 12.088-.667 26.047v25.381l6.25-.297 6.25-.298-.15-14.75c-.083-8.113-.047-14.75.08-14.75s4.47 6.742 9.65 14.981l9.42 14.982 6.267.018 6.267.019-.267-25.75-.267-25.75-5.722-.299-5.722-.299-.278 14.281-.278 14.28-9.247-14.231L459.007 462h-5.837c-3.21 0-6.137.3-6.503.667m53 0c-.367.366-.667 12.077-.667 26.024v25.357l16.75-.274 16.75-.274v-10L522 503l-10.5-.5-.307-4.25-.308-4.25H529.1l-.3-5.621-.3-5.62-8.384-.13-8.383-.129-.117-4.219-.116-4.22 10.5-.28c10.206-.273 10.509-.348 10.837-2.662.185-1.31.052-3.897-.296-5.75l-.632-3.369h-15.788c-8.683 0-16.088.3-16.454.667m40.793.577c-.273.712-.376 12.31-.228 25.775l.268 24.481 16.75.274 16.75.274V503h-21v-9h17v-11h-17v-8.93l10.25-.285 10.25-.285v-11l-16.272-.275c-12.589-.213-16.384.018-16.768 1.019m88.207-.577c-.367.366-.667 12.088-.667 26.047v25.381l6.25-.297 6.25-.298.267-25.75.267-25.75h-5.85c-3.218 0-6.151.3-6.517.667M650 488.048v26.047l6.25-.297 6.25-.298-.223-15c-.18-12.047.017-14.663 1-13.288.673.942 5.043 7.804 9.712 15.25L681.477 514H694v-52.095l-6.25.297-6.25.298-.285 13.5-.286 13.5-8.939-13.75-8.94-13.75H650zM594 480v7h2.935c3.537 0 8.241-1.679 9.279-3.313.416-.653.762-2.624.771-4.38.019-4.109-3.015-6.307-8.708-6.307H594zm4.713 58.422c-6.05 1.627-11.464 5.98-14.499 11.657-2.007 3.755-2.314 5.561-2.039 11.994.394 9.177 3.292 14.358 10.342 18.49 5.559 3.257 15.221 4.33 21.974 2.44 10.439-2.923 17.368-13.394 16.22-24.512-1.051-10.184-6.751-17.194-16.325-20.075-5.66-1.704-9.32-1.702-15.673.006m115.942.407c-3.666 4.051-.941 9.171 4.881 9.171 3.579 0 5.464-2.023 5.464-5.863 0-4.705-7.043-6.957-10.345-3.308m-391.336 9.125c-26.474 6.184-46.54 21.672-57.334 44.253-7.086 14.822-8.355 21.476-8.355 43.793 0 17.004.282 20.524 2.201 27.5 9.771 35.516 36.648 58.115 72.745 61.166l7.556.639 4.06 5.978c7.674 11.3 21.229 22.851 33.14 28.241 8.253 3.735 19.65 5.684 26.649 4.556 3.251-.523 6.947-1.484 8.215-2.136 3.417-1.756 8.761-7.036 10.517-10.39 2.297-4.39 2.119-14.443-.33-18.645-1.933-3.316-2.204-3.426-9.935-4.042-9.393-.749-15.952-2.304-23.372-5.543-9.029-3.941-9.029-4.014-.051-9.195 20.44-11.796 33.401-28.283 39.056-49.683 2.68-10.142 3.661-32.301 1.986-44.874-4.69-35.21-26.391-61.135-59.106-70.609-10.924-3.163-36.134-3.697-47.642-1.009m330.162 3.378c-10.558 4.815-13.667 19.459-5.708 26.881 4.237 3.951 6.936 4.951 12.543 4.648l5.184-.281.313 3.762.314 3.762 4.686-.302 4.687-.302.322-14.084c.401-17.58-.214-20.33-5.084-22.735-4.934-2.437-13.416-3.1-17.257-1.349m27.534 11.363c.009 7.377.478 12.707 1.25 14.209 3.202 6.231 13.142 8.926 19.658 5.33 5.706-3.149 7.077-7.017 7.077-19.968V551h-10v9.918c0 5.455-.273 10.63-.607 11.5-.728 1.897-5.92 2.14-7.07.332-.437-.687-.801-5.75-.809-11.25l-.014-10-4.75-.305-4.75-.305zm33.21 4.055.275 15.75 4.75.305 4.75.305V551h-10.051zm15.471-15.113c-.383.383-.696 2.4-.696 4.482v3.786l6.06.297 6.061.298-6.061 7.192c-5.236 6.215-6.06 7.745-6.06 11.25V583h26v-9.171l-6.502.336c-3.576.184-6.501.174-6.5-.023.001-.198 2.954-3.927 6.563-8.289 5.515-6.666 6.511-8.441 6.25-11.141l-.311-3.212-12.054-.279c-6.63-.154-12.367.034-12.75.416m-74.623 10.998c-2.722 3.46-2.617 5.912.382 8.91 4.742 4.743 10.545 2.046 10.545-4.902 0-5.084-1.321-6.643-5.627-6.643-2.296 0-3.826.761-5.3 2.635M212.2 578.2c-.66.66-1.2 1.713-1.2 2.339 0 1.625-4.504 3.461-8.49 3.461-3.928 0-6.51 2.846-6.51 7.175 0 3.842-1.753 7.241-4.315 8.366-3.598 1.579-3.508 7.011.181 10.836 3.265 3.386 5.134 7.415 5.134 11.066 0 3.275 2.424 4.885 7.826 5.198 3.614.21 5.136.848 6.712 2.815 2.695 3.366 8.976 3.65 9.991.453.816-2.57 6.651-5.153 9.836-4.354 3.327.835 5.635-1.852 5.635-6.561 0-5.32 1.311-8.287 4.388-9.934 3.655-1.956 3.764-8.106.178-10.025-2.826-1.512-4.871-5.801-4.417-9.264.174-1.327-.482-3.631-1.458-5.121-1.646-2.511-2.127-2.661-6.619-2.065-4.583.608-4.968.475-7.146-2.471-1.719-2.325-3.091-3.114-5.414-3.114-1.712 0-3.652.54-4.312 1.2m119.13 9.595c-11.141 3.973-20.359 13.687-25.343 26.705-3.158 8.251-3.98 28.072-1.556 37.54 3.724 14.546 10.983 24.524 22.053 30.314 5.685 2.973 6.621 3.146 17.016 3.146 9.841 0 11.602-.282 16.718-2.68 11.58-5.428 21.089-17.533 24.226-30.842 3.278-13.912 1.097-32.597-5.172-44.303-3.896-7.273-12.137-15.263-19.004-18.424-7.702-3.546-21.176-4.224-28.938-1.456m471.738.87c-1.985 1.39-3.055 1.485-6.473.572-4.691-1.252-6.12-.422-9.809 5.697-1.182 1.961-3.642 5.255-5.467 7.319-3.64 4.116-4.167 6.798-1.734 8.818 1.571 1.303 1.564 1.608-.234 10.167-.438 2.089-.133 2.898 1.287 3.409 4.025 1.448 11.232 7.54 12.198 10.312 1.299 3.728 6.221 4.934 10.673 2.614 1.898-.989 4.177-1.338 6.234-.956 5.559 1.033 8.166-.239 10.197-4.977 1.013-2.364 3.748-5.929 6.078-7.923 3.569-3.055 4.252-4.238 4.338-7.514.066-2.515-.532-4.522-1.694-5.683-1.145-1.146-1.74-3.103-1.642-5.408.084-1.987-.149-4.57-.518-5.74-.653-2.07-4.28-4.372-6.888-4.372-.711 0-2.958-1.8-4.994-4-4.118-4.451-7.543-5.143-11.552-2.335m-592.767 3.415c-7.007 3.468-10.13 12.359-6.768 19.269 4.618 9.491 18.921 10.125 24.507 1.086 4.916-7.954 2.692-16.45-5.322-20.33-5.425-2.626-7.156-2.629-12.417-.025m249.354 1.317c-2.114.788-4.97 2.483-6.345 3.768-5.325 4.974-5.31 4.841-5.31 46.18 0 36.147.125 38.854 2.091 45.3 5.13 16.823 16.968 27.47 35.597 32.018 9.63 2.351 32.535 2.361 41.312.018 16.476-4.397 27.951-12.698 33.932-24.546 5.596-11.085 6.037-15.027 6.053-54.069.014-33.812-.08-35.63-2.056-39.713-6.511-13.449-31.349-13.439-38.715.016-1.496 2.733-1.778 7.576-2.214 38.131-.467 32.696-.632 35.224-2.5 38.395-3.009 5.11-6.689 7.373-12.812 7.881-7.781.645-13.82-2.202-16.847-7.942-2.233-4.235-2.293-5.132-2.615-39.226-.309-32.616-.462-35.15-2.342-38.834-1.482-2.907-3.226-4.48-6.636-5.989-5.938-2.626-15.532-3.273-20.593-1.388m135.795.01c-4.449 1.938-8.234 6.95-8.946 11.848-.339 2.335-.479 26.295-.31 53.245.276 44.261.474 49.307 2.041 52.171 2.727 4.985 7.101 7.474 15.104 8.596 8.142 1.141 13.659.096 18.152-3.438 5.489-4.318 5.509-4.539 5.503-58.547-.003-29.703-.404-51.217-.993-53.339-1.181-4.251-5.127-8.263-10.219-10.39-4.554-1.902-16.11-1.985-20.332-.146m55.646 3.858c-8.571 4.405-9.449 21.352-1.493 28.834 2.493 2.344 3.061 2.413 24.057 2.901l21.504.5-25.954 30.22c-14.274 16.621-26.774 31.921-27.777 34-2.555 5.298-2.481 13.734.165 18.78 3.951 7.535 2.305 7.302 54.077 7.671 45.337.323 46.225.292 48.938-1.733 5.771-4.306 6.887-6.888 6.887-15.938 0-6.906-.362-8.843-2.09-11.177-3.956-5.345-6.002-5.762-30.137-6.154l-22.228-.361 8.274-10.154c38.461-47.201 39.192-48.158 42.71-55.908 3.265-7.193 2.336-15.579-2.27-20.496l-2.108-2.25-45.075.015c-33.785.011-45.678.324-47.48 1.25M798 598.704c-5.51 2.005-9.761 10.428-8.542 16.926 1.876 9.996 14.402 15.59 22.644 10.112 9.753-6.482 9.707-20.738-.083-25.732-3.735-1.906-10.611-2.546-14.019-1.306m4 6.012c-7.734 2.776-7.874 13.48-.215 16.392 5.274 2.005 12.034-3.998 10.661-9.469-1.106-4.403-6.853-8.212-10.446-6.923M624.5 752.013c-1.1.413-2.857 1.704-3.905 2.869-1.092 1.215-3.118 2.118-4.75 2.118-3.531 0-6.845 3.169-6.845 6.545 0 1.4-1.067 3.613-2.37 4.916-3.874 3.874-4.048 6.764-.608 10.061 2.105 2.016 2.978 3.803 2.978 6.094 0 4.181 2.27 6.384 6.578 6.384 2.418 0 4.079.74 5.609 2.5 1.195 1.375 3.197 2.5 4.448 2.5s3.399-1.125 4.774-2.5c1.717-1.717 3.599-2.5 6.01-2.5 4 0 6.145-2.687 5.71-7.149-.179-1.833.685-3.615 2.806-5.785 3.748-3.834 3.952-7.255.565-9.474-1.836-1.203-2.5-2.52-2.5-4.96 0-3.936-2.556-6.632-6.288-6.632-1.449 0-3.66-1.059-4.922-2.357-2.838-2.921-4.712-3.597-7.29-2.63m-2.122 12.424c-9.096 3.959-8.304 16.796 1.202 19.462 4.15 1.164 8.855-.905 10.855-4.774 3.094-5.982 1.381-11.617-4.446-14.631-3.456-1.787-3.633-1.788-7.611-.057"/></svg>